 <svg version="1.0" xmlns="http://www.w3.org/2000/svg" width="700.000000pt" height="719.000000pt" viewBox="0 0 700.000000 719.000000" preserveAspectRatio="xMidYMid meet">
<metadata>
Created by potrace 1.12, written by Peter Selinger 2001-2015
</metadata>
<g transform="translate(0.000000,719.000000) scale(0.100000,-0.100000)" fill="#000000" stroke="none">
<path d="M3443 6784 c-3 -8 0 -21 6 -27 10 -9 16 -8 27 7 8 11 14 23 14 28 0
15 -41 8 -47 -8z"></path>
<path d="M3560 6791 c0 -5 14 -15 30 -23 17 -7 30 -20 30 -30 0 -31 12 -48 34
-48 13 0 42 -20 70 -49 40 -41 48 -54 42 -75 -5 -19 -1 -28 13 -36 11 -5 23
-20 26 -32 13 -43 65 -145 79 -157 8 -7 18 -26 21 -42 4 -16 10 -29 15 -29 14
0 20 31 10 50 -6 10 -10 28 -10 39 0 11 -9 22 -20 26 -13 4 -20 15 -20 32 0
23 -20 55 -67 108 -12 13 -19 43 -23 95 -4 59 -8 75 -22 78 -12 2 -15 -2 -11
-19 4 -16 2 -20 -8 -17 -8 3 -14 14 -14 26 -1 31 -33 61 -74 68 -20 4 -47 15
-60 25 -26 21 -41 24 -41 10z"></path>
<path d="M3360 6763 c-39 -14 -50 -36 -50 -95 0 -60 14 -76 30 -34 5 13 14 27
19 31 7 4 8 12 2 24 -12 21 11 61 35 61 8 0 14 5 14 10 0 11 -25 12 -50 3z"></path>
<path d="M3485 6713 c-18 -32 -24 -55 -20 -74 6 -28 -11 -39 -66 -39 -37 0
-63 -32 -56 -68 4 -19 -1 -39 -14 -61 -11 -18 -22 -59 -26 -92 -6 -63 -21 -80
-69 -76 -11 1 -20 -6 -22 -18 -2 -11 -12 -38 -22 -60 -10 -22 -21 -66 -25 -98
-7 -51 -5 -61 16 -92 13 -19 30 -35 36 -35 19 0 128 -101 131 -122 4 -23 56
-66 90 -75 21 -5 31 0 52 25 15 18 32 32 38 32 21 0 13 -28 -15 -49 -23 -19
-25 -24 -14 -47 17 -39 3 -47 -33 -19 -18 14 -40 25 -48 25 -21 0 -48 -32 -48
-57 0 -22 -64 -63 -98 -63 -9 0 -23 -9 -30 -20 -14 -24 -32 -26 -32 -5 0 8 5
15 10 15 6 0 10 8 10 18 0 24 27 48 61 57 60 15 47 92 -33 202 -47 64 -54 69
-68 42 -14 -26 -27 -15 -32 26 -3 27 -7 30 -38 30 -37 0 -36 3 -59 -110 -6
-31 -6 -54 0 -60 14 -14 11 -36 -8 -50 -19 -14 -9 -37 13 -28 12 4 15 1 12
-13 -3 -14 -11 -18 -30 -16 -44 4 -58 -32 -58 -148 0 -56 5 -110 10 -120 6
-11 26 -22 45 -26 38 -7 45 -21 18 -31 -26 -10 -98 -60 -113 -78 -10 -12 -12
-49 -7 -159 3 -78 9 -150 13 -159 12 -31 -16 -18 -37 18 -23 39 -44 37 -35 -4
20 -97 27 -151 24 -195 -3 -44 -6 -51 -27 -56 -32 -7 -38 -28 -12 -38 19 -7
20 -10 7 -27 -12 -16 -12 -26 0 -65 8 -25 14 -55 14 -67 0 -28 16 -30 23 -3
11 42 62 7 55 -38 -2 -13 3 -16 20 -14 12 2 22 -1 22 -6 0 -16 -37 -43 -51
-37 -32 12 -92 -112 -69 -140 19 -23 33 -6 27 36 -3 21 -2 40 1 43 8 9 53 -44
47 -55 -10 -15 26 -23 46 -11 10 7 26 12 35 12 25 0 12 -33 -19 -48 -16 -8
-32 -25 -38 -39 -10 -28 -34 -26 -34 3 0 14 -7 19 -25 19 -29 0 -29 -2 -2
-100 21 -79 42 -127 57 -132 12 -4 35 64 35 102 0 26 -18 35 -24 13 -14 -47
-17 -51 -28 -40 -6 6 -8 25 -4 46 6 30 12 37 43 45 46 13 63 1 63 -47 0 -48
34 -102 60 -95 14 4 20 0 20 -11 0 -9 5 -16 10 -16 6 0 10 11 10 25 0 35 27
85 45 85 8 0 15 -4 15 -10 0 -5 5 -10 10 -10 6 0 10 11 10 24 0 18 5 23 23 22
18 -1 21 -6 19 -31 -5 -41 -18 -52 -42 -37 -17 10 -21 10 -27 -3 -3 -9 0 -28
6 -41 13 -30 7 -46 -16 -37 -11 4 -24 -3 -38 -21 -19 -24 -26 -26 -42 -17 -16
8 -24 7 -37 -8 -11 -12 -25 -16 -41 -13 -18 3 -25 0 -25 -11 0 -24 19 -31 39
-13 22 20 31 20 31 2 0 -7 10 -20 23 -29 18 -12 20 -18 10 -28 -30 -31 -3 -69
49 -69 13 0 37 -9 53 -20 30 -20 65 -27 65 -12 -1 4 -15 16 -33 27 -23 14 -32
29 -34 50 -1 17 -5 40 -7 51 -5 18 0 23 29 28 44 9 85 72 85 132 0 28 3 35 10
24 13 -21 10 -102 -6 -124 -7 -10 -10 -25 -7 -33 5 -12 0 -14 -24 -9 -22 5
-34 2 -46 -12 -17 -18 -16 -21 9 -61 15 -22 31 -41 35 -41 3 0 22 7 41 15 l35
14 7 86 c7 90 0 161 -17 183 -7 9 -5 18 7 30 16 16 17 16 14 0 -2 -9 2 -17 7
-17 6 -1 10 14 10 32 0 20 -5 31 -12 29 -15 -2 -18 24 -4 32 14 9 23 76 12 90
-7 9 -6 19 5 34 10 15 13 32 9 53 -4 16 -2 51 4 77 16 75 22 229 9 257 -11 25
-31 31 -62 19 -19 -7 -21 -31 -3 -37 20 -6 -11 -37 -39 -37 -29 0 -40 16 -24
35 11 13 7 15 -19 15 -17 0 -31 -4 -31 -10 0 -13 -37 -13 -45 -1 -3 6 1 13 9
18 8 4 16 19 18 32 4 30 28 41 28 12 0 -11 4 -22 9 -25 19 -12 109 16 139 42
30 27 31 29 41 162 l11 135 -25 20 c-30 25 -32 35 -6 35 11 0 22 4 26 9 3 5 8
63 10 128 8 189 22 243 64 243 36 0 45 -25 31 -90 -12 -55 -11 -62 5 -80 13
-15 15 -23 7 -33 -13 -15 -10 -190 2 -220 5 -9 4 -23 -2 -30 -12 -15 2 -153
19 -184 9 -16 9 -26 1 -35 -7 -9 -7 -50 0 -133 5 -66 9 -151 10 -190 0 -38 3
-74 6 -80 4 -5 7 -53 7 -105 l0 -95 28 -3 c16 -2 39 4 52 12 13 9 31 16 40 16
8 0 31 10 51 23 34 21 35 24 31 75 -2 28 -2 52 -1 52 2 0 15 -5 29 -12 26 -12
32 -23 15 -33 -5 -3 -10 -15 -10 -26 0 -27 38 -25 96 6 26 14 60 25 76 25 21
0 31 6 38 24 5 13 28 43 52 66 l43 41 -2 107 c-3 95 -5 109 -24 125 -17 14
-19 20 -9 32 10 12 10 18 -1 31 -7 8 -14 34 -16 57 -5 73 -19 131 -37 160 -18
27 -18 27 7 27 27 0 41 22 31 52 -6 19 -21 20 -68 2 -12 -5 -16 0 -16 18 0 33
8 40 33 27 31 -17 62 20 60 74 -4 96 -8 110 -29 118 -12 4 -25 12 -29 18 -3 6
-7 74 -8 152 -2 134 -3 141 -26 158 -15 11 -24 29 -25 49 -1 18 -10 37 -21 46
-19 14 -20 14 0 36 17 19 18 26 6 83 -15 75 -27 89 -78 91 -38 1 -39 2 -40 36
-1 19 5 42 12 50 20 22 7 69 -22 83 -16 7 -22 16 -17 26 14 32 4 57 -35 91
-23 20 -41 42 -41 51 0 23 -35 149 -53 190 -20 45 -40 61 -68 57 -24 -3 -35
11 -60 80 -15 42 -46 82 -64 82 -7 0 -25 -21 -40 -47z m65 -73 c0 -5 -4 -10
-9 -10 -6 0 -13 5 -16 10 -3 6 1 10 9 10 9 0 16 -4 16 -10z m-123 -236 c-9 -9
-28 6 -21 18 4 6 10 6 17 -1 6 -6 8 -13 4 -17z m-244 -750 c11 -11 -5 -34 -23
-34 -22 0 -34 15 -25 30 7 11 38 14 48 4z m599 -176 c2 -26 -1 -38 -9 -38 -16
0 -29 25 -37 73 l-7 39 24 -19 c17 -12 26 -30 29 -55z m102 -184 c7 -19 -2
-37 -15 -29 -12 8 -12 45 0 45 5 0 12 -7 15 -16z m-480 -111 c4 -4 -3 -15 -15
-23 -19 -15 -20 -19 -8 -38 11 -18 11 -25 1 -40 -6 -9 -16 -27 -22 -39 -5 -13
-14 -23 -20 -23 -16 0 -12 28 6 38 13 7 14 13 5 30 -6 11 -11 32 -11 46 0 38
42 71 64 49z m226 -19 c0 -8 -4 -12 -10 -9 -5 3 -10 10 -10 16 0 5 5 9 10 9 6
0 10 -7 10 -16z m345 -11 c68 -24 96 -63 45 -63 -10 0 -20 -7 -24 -15 -3 -8
-12 -15 -20 -15 -7 0 -16 7 -20 15 -3 10 -19 15 -44 15 -72 0 -90 61 -22 73
14 2 27 5 30 6 3 0 28 -7 55 -16z m-760 -131 c6 -4 16 -15 24 -25 12 -15 11
-20 -5 -38 -15 -17 -16 -24 -6 -51 15 -40 10 -45 -22 -21 -30 21 -33 38 -9 52
13 7 14 13 6 23 -28 35 -19 83 12 60z m105 -21 c0 -21 -30 -33 -51 -21 -10 7
-10 11 0 24 19 22 51 20 51 -3z m-242 -94 c16 4 22 1 22 -10 0 -9 -4 -19 -10
-22 -11 -7 -59 25 -60 39 0 5 6 4 13 -2 7 -6 23 -9 35 -5z m-118 -107 c0 -5
-4 -10 -10 -10 -5 0 -10 5 -10 10 0 6 5 10 10 10 6 0 10 -4 10 -10z m162 -75
c2 -32 0 -40 -15 -43 -15 -3 -18 0 -12 16 3 12 0 30 -7 42 -11 17 -11 22 2 30
20 13 28 2 32 -45z m-82 9 c11 -12 10 -18 -3 -32 -16 -15 -18 -15 -38 5 -12
11 -18 26 -15 32 10 16 41 13 56 -5z m-46 -73 c9 -14 -4 -41 -19 -41 -18 0
-28 17 -21 35 6 17 32 20 40 6z m184 -23 c-6 -18 -28 -21 -28 -4 0 9 7 16 16
16 9 0 14 -5 12 -12z m-18 -58 c0 -5 -4 -10 -10 -10 -5 0 -10 5 -10 10 0 6 5
10 10 10 6 0 10 -4 10 -10z m580 -5 c0 -9 11 -20 25 -25 30 -11 54 -55 38 -71
-7 -7 -22 3 -47 32 -34 41 -47 79 -26 79 6 0 10 -7 10 -15z m-494 -70 c-3 -9
1 -18 9 -21 11 -4 15 -22 15 -60 0 -43 -4 -55 -20 -64 -16 -9 -22 -8 -26 5 -4
8 -1 22 6 30 9 11 8 20 -6 44 -16 26 -16 33 -4 56 14 27 36 35 26 10z m-206
-33 c0 -10 -13 -33 -29 -52 l-29 -35 -20 25 c-21 26 -14 50 13 50 7 0 18 7 25
15 17 21 40 19 40 -3z m130 -51 c0 -32 -16 -49 -31 -34 -14 14 0 63 17 63 9 0
14 -11 14 -29z m168 -18 c-4 -22 -22 -20 -26 1 -2 10 3 16 13 16 10 0 15 -7
13 -17z m12 -103 c0 -24 -31 -27 -49 -6 -12 14 -11 15 42 25 4 0 7 -8 7 -19z
m-195 0 c8 -13 -5 -60 -16 -60 -5 0 -13 8 -16 18 -4 9 -13 21 -22 26 -13 8
-12 10 4 17 28 11 43 11 50 -1z m79 -56 c5 -14 4 -15 -9 -4 -17 14 -19 20 -6
20 5 0 12 -7 15 -16z m52 -201 c-11 -11 -17 4 -9 23 7 18 8 18 11 1 2 -10 1
-21 -2 -24z m-81 -73 c4 -6 -5 -10 -19 -10 -14 0 -26 5 -26 10 0 6 9 10 19 10
11 0 23 -4 26 -10z"></path>
<path d="M3297 6583 c-2 -4 -7 -20 -11 -36 -4 -15 -20 -50 -37 -77 -17 -27
-27 -55 -23 -61 9 -15 34 16 34 42 0 9 6 22 14 28 15 13 42 98 33 107 -3 3 -7
2 -10 -3z"></path>
<path d="M3190 6357 c0 -7 -16 -29 -36 -48 -52 -50 -124 -161 -124 -191 0 -15
5 -39 10 -54 8 -21 14 -24 22 -16 9 9 9 21 -1 48 -13 36 -13 37 22 69 20 18
39 46 43 62 4 15 27 51 51 79 47 56 51 64 28 64 -8 0 -15 -6 -15 -13z"></path>
<path d="M3930 6193 c0 -5 7 -17 15 -27 8 -11 15 -28 15 -38 0 -10 5 -18 10
-18 6 0 10 13 10 29 0 20 -8 34 -25 45 -14 9 -25 13 -25 9z"></path>
<path d="M3960 6084 c0 -3 14 -23 31 -45 16 -21 33 -54 36 -74 3 -19 10 -35
15 -35 6 0 8 18 3 48 -5 33 -16 57 -38 80 -29 30 -47 40 -47 26z"></path>
<path d="M3016 6021 c-4 -5 -2 -12 3 -15 5 -4 12 -2 15 3 4 5 2 12 -3 15 -5 4
-12 2 -15 -3z"></path>
<path d="M2990 5964 c-16 -41 -6 -54 13 -17 11 20 13 34 7 38 -6 3 -15 -6 -20
-21z"></path>
<path d="M2930 5885 c-10 -12 -10 -21 -2 -40 7 -14 7 -27 2 -30 -24 -15 -42
-77 -47 -163 -3 -51 -10 -95 -14 -98 -5 -3 -9 -29 -9 -57 0 -29 -7 -65 -15
-81 -8 -15 -15 -39 -15 -51 0 -12 -7 -36 -15 -51 -8 -16 -15 -37 -15 -47 0
-11 -9 -30 -20 -44 -21 -27 -27 -68 -10 -78 17 -10 13 -238 -4 -261 -14 -18
-12 -58 4 -79 8 -10 12 -44 26 -209 5 -67 3 -85 -14 -120 -20 -42 -36 -126
-23 -126 15 0 31 25 31 50 0 14 5 31 11 37 16 16 24 193 11 234 -16 46 -19
223 -5 240 6 8 9 37 7 69 -3 30 -6 84 -8 120 -2 36 -5 72 -7 80 -3 10 2 14 14
12 20 -3 22 9 5 26 -8 8 -8 15 0 24 5 7 16 42 23 78 8 40 20 71 32 81 15 12
18 23 12 47 -5 25 -3 33 10 39 15 5 16 15 11 65 -10 81 12 209 36 216 20 5 22
11 8 32 -6 10 -3 21 11 36 23 25 22 57 -2 62 -9 1 -22 -4 -29 -13z"></path>
<path d="M4047 5858 c7 -51 37 -125 63 -153 24 -26 31 -94 13 -122 -10 -14
-11 -23 -4 -28 6 -3 11 -19 11 -36 0 -20 5 -29 16 -29 15 0 16 12 10 108 -7
97 -9 109 -31 125 -22 16 -38 59 -59 150 -10 43 -25 31 -19 -15z"></path>
<path d="M4160 5413 c15 -26 18 -39 10 -54 -6 -11 -7 -25 -3 -32 4 -6 8 -58 9
-114 0 -98 2 -104 27 -131 31 -32 37 -91 12 -112 -27 -22 -13 -156 19 -188 19
-20 31 -10 18 15 -41 79 -41 140 -2 178 37 35 38 83 4 100 -52 26 -54 31 -48
129 4 50 7 125 8 166 l1 74 -38 1 -37 2 20 -34z"></path>
<path d="M3507 5248 c-6 -99 -3 -116 19 -97 14 12 20 141 8 173 -13 35 -21 12
-27 -76z"></path>
<path d="M4147 5023 c-10 -10 -8 -51 2 -58 13 -7 34 33 27 51 -6 15 -18 18
-29 7z"></path>
<path d="M4245 4751 c-3 -2 -5 -18 -5 -36 0 -17 -9 -48 -20 -70 -22 -43 -25
-65 -10 -65 6 0 10 7 10 15 0 25 42 75 62 75 23 0 44 48 30 70 -8 14 -57 22
-67 11z"></path>
<path d="M945 4602 c-74 -24 -149 -135 -140 -208 3 -21 9 -63 13 -93 l7 -55
54 -12 c38 -8 60 -20 76 -39 14 -18 24 -24 29 -17 10 16 -79 86 -111 87 -25 0
-29 4 -35 45 -11 77 -9 136 8 168 8 18 20 32 25 32 5 0 32 16 59 35 57 40 70
43 70 15 0 -25 45 -49 61 -33 7 7 -3 21 -34 47 -46 37 -49 38 -82 28z"></path>
<path d="M5630 4551 l-35 -28 95 14 c52 7 99 18 104 23 6 6 8 10 6 11 -3 0
-34 2 -70 5 -61 4 -68 2 -100 -25z"></path>
<path d="M1143 4554 c-41 -20 -44 -40 -5 -28 15 5 60 8 100 7 58 -2 72 0 72
12 0 10 -11 14 -37 14 -21 0 -51 2 -68 5 -19 4 -42 0 -62 -10z"></path>
<path d="M1345 4550 c-4 -7 -2 -17 4 -23 6 -6 11 -19 11 -28 0 -49 47 -25 52
26 3 27 0 30 -29 33 -17 2 -34 -2 -38 -8z"></path>
<path d="M5815 4550 c-10 -16 16 -43 29 -30 5 5 18 10 28 10 22 0 24 16 2 24
-24 9 -52 7 -59 -4z"></path>
<path d="M5940 4550 c0 -6 32 -10 75 -10 43 0 75 4 75 10 0 6 -32 10 -75 10
-43 0 -75 -4 -75 -10z"></path>
<path d="M6130 4551 c0 -8 71 -22 79 -15 1 1 0 7 -4 13 -8 13 -75 15 -75 2z"></path>
<path d="M1454 4529 c-7 -12 12 -29 34 -29 23 0 72 -30 72 -44 0 -24 26 -38
39 -22 7 8 20 12 29 10 9 -3 -1 11 -23 31 -61 56 -133 82 -151 54z"></path>
<path d="M4180 4525 c0 -8 5 -15 10 -15 6 0 10 7 10 15 0 8 -4 15 -10 15 -5 0
-10 -7 -10 -15z"></path>
<path d="M6234 4524 c28 -72 11 -194 -30 -220 -19 -13 -21 -19 -12 -34 17 -27
3 -53 -27 -46 -20 5 -28 0 -48 -29 -13 -19 -42 -48 -65 -65 -47 -34 -60 -77
-19 -65 12 4 42 22 66 41 24 19 55 34 68 34 15 0 26 8 32 23 19 49 31 94 31
114 0 11 9 28 20 38 13 12 18 25 14 38 -3 11 -1 30 6 42 9 16 10 36 4 62 -4
21 -8 47 -8 58 -1 11 -9 21 -20 23 -15 3 -17 0 -12 -14z"></path>
<path d="M5508 4514 c-16 -8 -28 -19 -28 -24 0 -12 -3 -12 40 3 37 12 51 30
28 34 -7 1 -25 -4 -40 -13z"></path>
<path d="M5324 4490 c-12 -5 -25 -13 -29 -19 -3 -6 -20 -11 -37 -11 -21 0 -31
-6 -35 -20 -3 -11 -20 -24 -39 -30 -42 -14 -43 -26 -3 -34 39 -7 49 -1 49 29
0 19 7 26 28 31 34 7 43 11 63 25 12 9 24 8 50 -4 45 -20 89 -30 89 -19 0 18
-27 40 -55 45 -16 3 -37 8 -45 11 -8 2 -25 1 -36 -4z"></path>
<path d="M895 4460 c-7 -11 21 -50 36 -50 4 0 20 5 35 10 24 9 25 13 13 24
-20 20 -75 30 -84 16z"></path>
<path d="M1077 4454 c-34 -19 -26 -34 18 -34 39 0 52 14 35 35 -15 18 -18 18
-53 -1z"></path>
<path d="M5930 4455 c-7 -8 -25 -15 -40 -15 -15 0 -33 -6 -39 -14 -35 -42
-159 -74 -176 -46 -13 21 -46 9 -95 -35 -27 -24 -58 -49 -69 -54 -31 -17 -33
1 -4 32 l28 30 -30 -7 c-72 -17 -126 -75 -64 -68 17 1 29 -3 33 -13 3 -10 18
-15 42 -15 28 0 37 5 41 20 5 20 50 50 73 50 17 0 1 -42 -23 -61 -24 -19 -16
-39 13 -32 30 8 25 -21 -6 -42 -24 -15 -24 -18 -10 -34 12 -13 13 -20 4 -29
-15 -15 -45 -16 -53 -2 -3 6 -17 10 -31 10 -13 0 -24 4 -24 8 0 14 23 32 41
32 24 0 34 19 15 26 -8 3 -28 -5 -45 -17 -29 -22 -32 -22 -44 -5 -12 16 -14
16 -26 2 -17 -20 -41 -21 -41 -1 0 9 11 20 25 25 14 5 25 13 25 18 0 15 -24
32 -44 32 -11 0 -36 11 -57 25 l-36 26 -60 -31 c-33 -16 -74 -30 -91 -30 -17
0 -33 -4 -36 -9 -4 -5 -24 -12 -45 -16 -22 -3 -47 -13 -58 -20 -10 -8 -28 -15
-40 -15 -12 0 -24 -4 -27 -9 -3 -5 -25 -19 -48 -31 -24 -12 -64 -42 -90 -66
-44 -41 -51 -44 -101 -44 -41 0 -61 -6 -87 -25 -19 -14 -41 -25 -50 -25 -8 0
-32 -14 -53 -31 -36 -30 -38 -30 -63 -15 -13 9 -30 14 -37 10 -23 -13 -122
-88 -152 -115 -16 -15 -48 -35 -70 -46 -35 -16 -51 -34 -91 -99 -9 -15 -15
-16 -24 -7 -22 21 -73 3 -113 -39 -33 -35 -41 -38 -71 -32 -30 5 -41 1 -81
-32 -26 -22 -53 -51 -61 -66 -8 -16 -21 -28 -29 -28 -8 0 -22 -11 -31 -25 -9
-14 -21 -25 -26 -25 -15 0 -98 -73 -98 -87 0 -21 -38 -34 -76 -27 -32 6 -35 9
-29 33 5 22 0 31 -25 49 l-31 23 -15 -36 c-13 -32 -58 -64 -72 -51 -2 3 10 28
27 56 17 28 31 54 31 59 0 5 -14 21 -31 36 -22 18 -35 23 -42 16 -7 -7 -5 -16
6 -29 22 -24 21 -34 -3 -55 -22 -18 -40 -15 -40 6 0 7 -14 29 -31 50 -25 31
-28 38 -15 43 24 9 19 30 -13 66 -25 28 -31 31 -45 19 -13 -11 -22 -11 -42 -2
-14 6 -34 11 -44 11 -16 0 -20 7 -20 34 0 41 -16 55 -34 30 -13 -16 -14 -16
-20 12 -8 34 -68 104 -90 104 -16 0 -66 -55 -66 -73 0 -6 -13 4 -29 23 -25 30
-35 35 -72 35 -40 0 -44 2 -44 25 0 17 8 29 28 38 27 13 29 32 2 32 -7 0 -26
13 -42 28 -30 30 -63 47 -63 33 0 -5 6 -11 13 -14 16 -6 -29 -56 -61 -68 -33
-13 -17 -31 21 -24 38 6 73 -19 79 -56 2 -16 9 -23 20 -21 24 4 32 -15 35 -80
l3 -57 -33 -3 c-24 -2 -31 -7 -29 -20 4 -25 -30 -23 -53 2 -10 11 -24 20 -32
20 -11 0 -11 -6 3 -30 18 -29 18 -30 -9 -58 -15 -15 -27 -31 -27 -34 0 -4 17
-12 38 -19 41 -13 99 -44 122 -64 8 -7 33 -23 54 -35 48 -26 65 -16 46 29 -7
17 -9 38 -6 47 12 30 48 -30 48 -81 1 -43 2 -44 52 -66 28 -11 59 -28 69 -37
15 -14 19 -14 35 1 29 26 41 20 44 -20 3 -34 7 -39 43 -53 22 -8 54 -24 70
-36 17 -11 44 -28 60 -36 17 -8 61 -31 98 -51 38 -21 77 -37 87 -37 11 0 24
-9 30 -20 7 -14 21 -20 43 -20 37 0 102 21 119 38 7 7 20 12 30 12 24 0 88 42
88 57 0 15 39 36 96 53 27 8 46 21 53 37 9 19 14 22 30 14 15 -9 42 3 142 59
155 86 167 95 171 122 3 20 8 23 41 20 27 -3 39 1 43 12 3 9 18 16 33 16 14 0
51 16 81 35 30 19 66 40 80 47 14 7 41 25 61 40 20 15 44 28 52 28 8 0 20 7
27 15 7 8 28 18 48 21 20 4 51 16 69 26 26 16 32 25 27 43 -7 28 9 40 34 24
16 -10 33 -4 109 39 95 55 139 69 162 53 12 -8 12 -13 -3 -36 -9 -14 -25 -28
-34 -31 -9 -3 -24 -10 -32 -15 -8 -5 -37 -20 -63 -34 -38 -21 -47 -30 -42 -45
5 -15 0 -21 -22 -26 -49 -10 -55 -14 -60 -33 -3 -10 -15 -21 -26 -24 -57 -14
-96 -36 -139 -80 -27 -26 -59 -52 -73 -57 -39 -15 -29 -30 20 -30 25 0 45 -4
45 -10 0 -5 -10 -10 -23 -10 -13 0 -28 -5 -34 -11 -8 -8 -17 -8 -31 0 -33 17
-149 -10 -167 -40 -6 -9 -67 -50 -110 -73 -11 -6 -57 -35 -103 -65 -81 -52
-83 -55 -80 -90 3 -31 0 -36 -17 -33 -57 9 -60 8 -57 -22 3 -26 1 -28 -24 -22
-31 8 -77 -8 -117 -41 -16 -13 -35 -23 -42 -23 -8 0 -20 -10 -26 -22 -15 -29
-30 -39 -50 -33 -10 3 -34 -9 -59 -30 -23 -19 -46 -35 -51 -35 -5 0 -20 -17
-34 -38 -17 -27 -24 -50 -23 -83 0 -25 -3 -59 -6 -76 -5 -22 -2 -39 9 -57 16
-24 16 -26 1 -32 -13 -5 -16 -22 -16 -84 0 -43 4 -90 10 -104 7 -19 6 -27 -5
-33 -11 -7 -15 -43 -19 -168 -2 -88 -8 -187 -11 -221 -6 -49 -4 -62 9 -73 15
-13 15 -15 1 -31 -12 -14 -17 -47 -19 -151 -4 -150 -13 -212 -30 -206 -20 6
-64 101 -75 161 -6 32 -18 70 -27 83 -16 26 -17 26 -89 0 -51 -19 -145 -32
-145 -20 0 5 33 15 73 22 79 14 164 50 192 81 15 17 16 32 10 139 -6 108 -9
122 -31 142 -31 29 -30 40 4 37 15 -2 26 2 26 7 -1 6 -9 127 -19 270 -19 294
-20 304 -41 312 -21 8 -54 -25 -54 -54 0 -16 -8 -27 -27 -34 -16 -6 -35 -17
-44 -25 -9 -8 -20 -14 -25 -12 -16 4 -81 -66 -104 -112 -12 -25 -26 -53 -31
-62 -14 -27 -11 -38 13 -58 26 -21 28 -63 9 -175 -18 -104 -8 -156 40 -205 21
-22 39 -47 39 -55 0 -24 -13 -17 -40 20 -47 64 -73 56 -68 -21 3 -43 6 -49 27
-52 19 -3 22 -8 17 -30 -17 -71 -18 -102 -6 -117 10 -12 10 -19 2 -27 -19 -19
-14 -56 8 -68 18 -10 20 -21 20 -123 0 -91 4 -118 18 -142 11 -18 21 -61 25
-105 6 -65 11 -78 33 -96 15 -12 23 -27 20 -33 -4 -6 0 -34 8 -63 8 -29 20
-72 25 -94 7 -26 21 -48 36 -58 14 -9 25 -26 25 -38 0 -21 24 -110 41 -155 5
-13 17 -23 28 -23 24 0 51 -36 51 -67 0 -37 -16 -34 -50 9 -19 23 -35 37 -37
31 -6 -18 16 -63 34 -69 10 -3 33 -13 50 -22 41 -20 54 -9 62 50 5 34 12 45
34 56 45 22 32 85 -20 95 -21 4 -37 20 -60 60 -18 31 -33 63 -33 72 0 20 -49
107 -67 118 -15 9 -17 34 -5 39 5 2 30 27 55 56 38 43 47 60 47 91 0 52 12 59
25 14 9 -31 16 -39 38 -41 37 -4 26 -17 -39 -47 -44 -20 -54 -29 -54 -49 0
-13 -2 -31 -6 -39 -3 -8 6 -28 20 -44 14 -17 31 -52 38 -79 12 -49 38 -88 71
-105 23 -13 57 6 57 31 0 31 12 51 36 60 17 7 25 21 34 67 6 32 15 68 20 81 6
13 10 32 10 43 0 11 10 23 24 28 17 7 25 20 30 51 3 23 4 45 1 51 -11 16 -51
10 -74 -12 -23 -22 -111 -40 -111 -23 0 10 91 54 112 54 25 0 65 53 71 95 4
24 15 46 28 56 21 15 22 22 16 102 -5 77 -4 88 15 112 19 24 21 39 20 129 -2
91 0 102 18 116 19 14 20 22 13 79 -8 64 -9 66 -63 91 -8 4 -15 20 -15 36 0
26 4 29 45 37 25 5 48 12 52 15 3 4 -3 41 -14 82 -32 123 -32 120 -12 135 18
13 18 15 -4 87 -13 40 -28 87 -33 104 -5 17 -9 53 -9 81 l0 51 48 6 c45 7 100
21 132 34 8 3 35 11 60 16 35 9 46 16 48 34 4 23 30 30 48 12 14 -14 135 32
147 56 6 10 13 26 17 34 4 8 22 20 40 26 18 6 39 18 45 28 7 9 26 16 46 16 19
0 52 9 74 19 22 10 53 21 68 25 23 5 27 11 25 34 -3 24 4 30 62 60 36 18 68
41 72 51 3 11 26 25 50 33 35 12 42 19 40 36 -3 17 10 28 70 59 40 21 87 43
103 49 22 8 29 17 28 32 -2 15 2 20 11 16 26 -10 55 14 58 49 3 30 10 36 120
92 65 33 123 65 129 72 15 15 19 49 22 205 2 130 12 167 39 140 14 -14 45 -16
53 -2 3 5 -10 16 -30 24 -19 8 -35 19 -35 25 0 14 34 23 63 16 18 -5 32 1 58
25 19 17 53 41 76 54 l41 24 6 -22 c3 -11 1 -23 -4 -24 -23 -8 -104 -68 -110
-82 -4 -8 -13 -26 -20 -40 -7 -14 -18 -34 -23 -45 -6 -11 -14 -27 -18 -35 -56
-101 -73 -160 -46 -160 17 0 130 80 163 115 19 21 24 34 19 55 -5 24 1 33 49
75 30 26 58 55 61 66 4 11 15 19 28 19 13 0 33 7 46 16 l22 16 -22 24 c-19 20
-21 29 -13 51 5 16 19 29 34 33 33 9 102 53 158 99 40 34 43 38 36 74 -5 34
-2 41 30 73 20 19 40 43 46 54 10 18 7 20 -27 21 -21 1 -61 1 -89 -1 -35 -1
-54 3 -63 14 -17 20 -25 20 -41 1z m50 -56 c16 -29 -4 -49 -47 -49 -19 0 -48
-7 -65 -16 -23 -12 -32 -13 -38 -4 -10 16 -67 -11 -109 -52 -26 -25 -31 -27
-31 -12 0 11 4 24 8 30 13 21 104 66 123 61 12 -3 31 7 54 29 43 40 88 46 105
13z m-685 -460 c8 -24 3 -30 -45 -56 -20 -11 -36 -29 -38 -41 -2 -12 -10 -22
-18 -22 -24 0 -15 28 21 64 19 20 35 41 35 49 0 32 35 37 45 6z m-2615 -80 c0
-5 -7 -9 -15 -9 -15 0 -20 12 -9 23 8 8 24 -1 24 -14z m2745 1 c3 -6 -1 -13
-10 -16 -19 -8 -30 0 -20 15 8 14 22 14 30 1z m-801 -56 c8 -21 -1 -34 -24
-34 -20 0 -30 17 -22 38 6 17 39 15 46 -4z m-124 -69 c0 -8 -7 -15 -15 -15 -8
0 -15 7 -15 15 0 8 7 15 15 15 8 0 15 -7 15 -15z m178 -28 c2 -10 -3 -17 -12
-17 -10 0 -16 9 -16 21 0 24 23 21 28 -4z m-1724 -3 c10 -4 16 -18 16 -39 l0
-33 -30 30 c-16 16 -30 34 -30 39 0 10 21 12 44 3z m2156 -49 c0 -16 -27 -32
-37 -22 -3 4 -3 13 0 22 8 20 37 20 37 0z m-1000 -40 c0 -8 -4 -15 -10 -15 -5
0 -10 7 -10 15 0 8 5 15 10 15 6 0 10 -7 10 -15z m1060 7 c0 -5 18 -17 40 -28
48 -23 50 -37 9 -58 -39 -20 -50 -13 -42 24 5 27 2 31 -26 41 -37 13 -41 29
-6 29 14 0 25 -4 25 -8z m-192 -18 c12 -8 20 -20 16 -25 -8 -14 15 -39 37 -39
13 0 19 -7 19 -21 0 -11 5 -29 11 -41 13 -24 1 -40 -12 -15 -11 19 -59 23 -91
6 -33 -18 -46 6 -14 26 25 17 36 55 16 55 -6 0 -24 -10 -40 -22 -42 -31 -50
-14 -12 25 18 18 32 41 32 50 0 21 9 21 38 1z m-1988 -31 c0 -15 -23 -43 -35
-43 -18 0 -20 31 -4 47 10 10 39 7 39 -4z m-188 -19 c14 -13 21 -14 32 -5 8 7
20 10 26 6 15 -9 12 -45 -4 -45 -8 0 -28 -8 -44 -17 -25 -14 -35 -15 -54 -6
-12 7 -32 13 -43 15 -30 5 -29 31 2 50 36 21 62 22 85 2z m116 -1 c-4 -22 -22
-20 -26 1 -2 10 3 16 13 16 10 0 15 -7 13 -17z m282 -18 c0 -8 -9 -15 -20 -15
-20 0 -26 11 -13 23 12 13 33 7 33 -8z m1010 -55 c26 0 35 -19 18 -36 -23 -23
-64 -2 -88 45 -30 60 -24 71 16 29 19 -21 44 -38 54 -38z m-1057 -20 c-6 -22
21 -70 39 -70 7 0 22 12 34 28 20 24 23 25 29 10 4 -10 -1 -31 -12 -50 -16
-27 -25 -33 -54 -33 -32 0 -34 1 -31 33 2 21 -1 34 -11 38 -21 8 -32 55 -16
65 19 11 28 2 22 -21z m-235 0 c9 -5 42 -16 73 -24 63 -18 108 -53 54 -43 -17
3 -50 12 -74 22 -26 9 -56 13 -72 10 -24 -6 -29 -3 -29 13 0 32 16 40 48 22z
m2182 -61 c0 -5 -4 -9 -10 -9 -5 0 -10 7 -10 16 0 8 5 12 10 9 6 -3 10 -10 10
-16z m-1985 -29 c17 -28 -44 -51 -89 -34 -24 9 -9 24 24 24 16 0 32 5 35 10 8
13 22 13 30 0z m1863 -42 c3 -13 -3 -18 -21 -18 -29 0 -37 7 -30 27 8 19 47
12 51 -9z m-1768 -50 c0 -23 -3 -29 -11 -21 -6 6 -8 20 -4 32 9 30 15 26 15
-11z m495 -58 c3 -5 4 -14 0 -20 -8 -13 -35 -1 -35 16 0 16 26 19 35 4z m-41
-116 c22 -9 20 -34 -3 -34 -30 0 -51 11 -51 26 0 15 27 18 54 8z m516 -147 c0
-21 -12 -28 -27 -16 -19 16 -16 29 7 29 11 0 20 -6 20 -13z m5 -90 c0 -26 -20
-25 -23 2 -3 16 1 22 10 19 7 -3 13 -12 13 -21z m-410 -25 c0 -18 -20 -15 -23
4 -3 10 1 15 10 12 7 -3 13 -10 13 -16z m-10 -404 c5 -20 13 -40 18 -44 10
-10 9 -24 -3 -24 -11 0 -34 44 -44 83 -10 44 16 29 29 -15z m125 -214 c0 -8
-4 -14 -9 -14 -11 0 -22 26 -14 34 9 9 23 -3 23 -20z m-497 -100 c3 -4 0 -15
-7 -26 -8 -11 -12 -28 -9 -38 3 -10 1 -26 -5 -36 -9 -16 -11 -15 -22 5 -22 42
15 123 43 95z m405 -668 c20 -40 2 -52 -33 -22 -18 16 -26 30 -21 41 9 24 39
14 54 -19z"></path>
<path d="M1661 4446 c-16 -19 -8 -22 73 -25 72 -3 116 -14 116 -30 0 -6 21
-24 46 -41 38 -27 51 -31 81 -25 32 6 39 3 59 -22 20 -25 25 -27 44 -15 18 11
25 11 45 -2 28 -18 45 -20 45 -6 0 6 -7 10 -15 10 -8 0 -32 16 -54 35 -34 31
-44 35 -95 35 -61 0 -81 7 -136 50 -28 23 -48 29 -100 32 -36 2 -72 7 -81 12
-9 4 -21 1 -28 -8z"></path>
<path d="M4180 4443 c0 -26 16 -47 29 -39 17 11 13 34 -9 46 -17 9 -20 8 -20
-7z"></path>
<path d="M1190 4410 c0 -6 9 -29 21 -51 17 -34 23 -38 35 -28 11 9 18 9 26 1
7 -7 27 -12 46 -12 19 0 46 -6 60 -14 15 -8 58 -29 95 -46 38 -18 67 -34 64
-36 -2 -2 -17 2 -33 11 -16 8 -36 15 -44 15 -8 0 -32 9 -53 20 -69 37 -171 21
-154 -25 4 -8 -1 -19 -10 -24 -15 -8 -15 -16 1 -99 11 -59 14 -96 8 -108 -5
-11 -14 -29 -20 -41 -16 -30 -15 -33 8 -33 10 0 24 -9 30 -20 6 -11 36 -34 66
-52 62 -34 73 -51 55 -81 -11 -17 -10 -22 3 -29 10 -5 44 -34 78 -64 45 -40
68 -54 91 -54 43 0 78 -34 71 -70 -5 -24 0 -30 43 -56 64 -39 82 -51 117 -73
27 -19 30 -19 52 -3 13 9 24 25 24 34 0 10 9 22 20 28 26 14 25 44 -2 62 -14
9 -19 20 -15 31 10 28 36 19 58 -18 12 -19 29 -35 39 -35 12 0 20 -10 24 -32
8 -40 2 -45 -30 -28 -22 12 -29 12 -51 0 -33 -19 -41 -78 -12 -98 10 -7 16
-19 12 -28 -6 -15 22 -54 40 -54 13 0 78 -31 109 -52 14 -10 34 -15 43 -12 22
9 65 -33 65 -63 0 -13 -4 -23 -10 -23 -5 0 -10 -4 -10 -10 0 -11 50 -35 103
-49 21 -5 54 -21 72 -35 19 -14 38 -26 44 -26 16 0 33 -38 20 -45 -5 -4 -9
-11 -7 -17 4 -12 101 -52 208 -84 91 -28 120 -46 120 -75 0 -12 14 -24 38 -34
81 -35 330 -113 380 -120 28 -4 55 -11 58 -16 3 -5 0 -25 -6 -45 -15 -43 -4
-58 19 -24 28 42 65 75 96 85 35 12 40 29 26 83 -26 95 -110 185 -290 310 -74
51 -77 52 -128 46 -58 -7 -107 1 -98 16 3 6 33 10 66 10 44 0 59 4 59 14 0 9
-17 16 -46 21 -37 5 -49 12 -64 38 -21 35 -75 79 -185 149 -98 62 -95 61 -108
50 -7 -5 -23 -9 -37 -7 -21 1 -25 7 -28 38 -4 48 -31 64 -74 46 -27 -11 -32
-10 -43 5 -7 9 -11 25 -8 35 7 26 -74 78 -99 62 -10 -6 -27 -11 -37 -11 -17 0
-19 5 -14 35 4 28 2 36 -13 42 -11 3 -36 17 -56 30 -21 13 -44 23 -52 23 -8 0
-16 10 -18 23 -2 15 -11 23 -28 25 -34 5 -50 20 -50 48 0 16 6 24 17 24 9 0
25 7 35 16 19 18 23 14 30 -31 2 -11 11 -20 20 -20 9 0 31 -13 47 -29 l30 -29
10 26 c15 40 29 33 33 -15 2 -35 7 -43 23 -43 12 0 25 11 33 29 12 23 19 27
41 23 23 -5 28 0 44 34 11 22 16 47 13 56 -6 14 -11 12 -35 -11 -30 -29 -56
-27 -64 5 -4 15 1 22 21 30 15 5 35 14 44 19 10 6 26 10 36 10 26 0 84 63 77
82 -4 10 2 22 15 31 29 20 21 30 -45 62 -56 28 -75 27 -75 -5 0 -24 -18 -36
-26 -17 -7 20 -112 102 -198 155 -62 39 -70 41 -86 27 -9 -8 -21 -15 -27 -15
-16 0 -111 45 -131 62 -25 21 -112 68 -127 68 -7 0 -19 -10 -27 -22 l-14 -21
-47 31 c-26 18 -58 32 -75 32 -16 0 -51 9 -77 21 -50 22 -106 21 -144 -3 -15
-9 -27 -6 -62 14 -56 32 -89 43 -89 28z m480 -206 c37 -15 40 -19 40 -55 l0
-38 -30 11 c-20 7 -36 23 -47 47 -9 20 -19 39 -21 44 -6 11 14 8 58 -9z m440
-65 c0 -5 -7 -9 -15 -9 -9 0 -15 9 -15 21 0 18 2 19 15 9 8 -7 15 -16 15 -21z
m-32 -113 c3 -12 -1 -17 -10 -14 -7 3 -15 13 -16 22 -3 12 1 17 10 14 7 -3 15
-13 16 -22z m288 -47 c3 -6 2 -15 -2 -19 -12 -12 -38 5 -30 19 9 14 23 14 32
0z m-598 -297 c3 -9 -2 -13 -14 -10 -9 1 -19 9 -22 16 -3 9 2 13 14 10 9 -1
19 -9 22 -16z m372 -97 c14 -16 10 -18 -14 -9 -9 3 -16 10 -16 15 0 14 16 11
30 -6z m-280 -56 c0 -5 -7 -9 -15 -9 -15 0 -20 12 -9 23 8 8 24 -1 24 -14z
m400 -74 c0 -8 -4 -15 -9 -15 -13 0 -22 16 -14 24 11 11 23 6 23 -9z m469
-344 c12 -8 10 -11 -11 -16 -36 -9 -91 -2 -96 13 -4 14 85 17 107 3z"></path>
<path d="M3500 4411 c-28 -8 -34 -34 -9 -39 17 -3 49 22 49 39 0 10 -4 10 -40
0z"></path>
<path d="M5035 4375 c-22 -8 -57 -15 -77 -15 -20 0 -40 -4 -43 -10 -3 -6 4
-10 16 -10 30 0 13 -17 -21 -22 -15 -2 -26 -11 -28 -22 -4 -16 0 -18 28 -13
17 4 43 16 57 27 14 11 33 20 43 20 24 0 120 41 120 51 0 13 -50 10 -95 -6z"></path>
<path d="M1007 4369 c-9 -6 -26 -7 -37 -4 -28 9 -25 -2 7 -29 26 -22 27 -26
14 -50 -13 -23 -12 -28 3 -45 10 -11 27 -22 40 -25 12 -3 32 -23 44 -45 21
-37 47 -59 101 -88 13 -7 28 -13 33 -13 13 0 2 42 -28 106 -27 57 -30 85 -12
114 18 29 0 51 -58 72 -56 20 -81 22 -107 7z"></path>
<path d="M4019 4371 c-31 -3 -62 -11 -70 -17 -8 -7 -42 -20 -77 -29 -46 -13
-68 -25 -83 -46 -18 -25 -24 -28 -62 -23 -74 9 -120 -34 -81 -77 16 -18 16
-20 0 -38 -15 -16 -15 -27 -6 -82 5 -35 10 -85 10 -112 0 -42 3 -49 26 -57 18
-7 24 -15 19 -29 -7 -22 9 -36 52 -46 39 -8 73 9 73 35 0 21 24 27 35 10 10
-16 20 -12 82 34 32 24 68 62 81 84 26 47 27 54 6 50 -29 -5 -27 21 3 49 30
28 79 136 103 225 10 38 10 51 0 63 -13 16 -19 16 -111 6z m-315 -279 c2 -4 1
-14 -4 -22 -7 -11 -12 -12 -21 -3 -6 6 -8 16 -5 22 8 13 23 14 30 3z m116
-152 c0 -5 -7 -10 -15 -10 -8 0 -15 5 -15 10 0 6 7 10 15 10 8 0 15 -4 15 -10z"></path>
<path d="M4200 4362 c0 -6 14 -20 31 -32 19 -14 28 -28 25 -37 -12 -30 6 -32
30 -4 32 38 30 51 -6 51 -17 0 -42 7 -55 16 -14 9 -25 12 -25 6z"></path>
<path d="M2223 4321 c-29 -24 -29 -32 1 -61 37 -34 79 -7 44 28 -8 8 -8 15 0
25 25 30 -12 36 -45 8z"></path>
<path d="M2290 4330 c0 -18 59 -72 70 -65 17 10 -22 69 -48 73 -12 2 -22 -2
-22 -8z"></path>
<path d="M2735 4311 c-6 -11 5 -18 40 -23 12 -2 20 3 20 12 0 18 -50 26 -60
11z"></path>
<path d="M3482 4260 c-20 -45 3 -64 49 -40 18 10 18 13 4 40 -20 38 -37 38
-53 0z"></path>
<path d="M4836 4265 c-15 -8 -37 -15 -47 -15 -20 0 -44 -35 -30 -44 5 -3 14 1
21 9 7 8 18 15 26 15 12 0 75 49 64 50 -3 0 -18 -7 -34 -15z"></path>
<path d="M2450 4261 c0 -5 7 -11 15 -15 8 -3 15 -11 15 -19 0 -20 56 -71 64
-58 10 16 -10 47 -48 76 -35 27 -46 31 -46 16z"></path>
<path d="M2700 4246 c-11 -14 -10 -20 5 -36 14 -15 21 -17 31 -9 18 15 44 4
44 -19 0 -18 -46 -70 -54 -61 -11 11 -56 81 -56 87 0 11 -51 32 -62 26 -4 -3
-6 -10 -3 -15 4 -5 -1 -19 -9 -31 -19 -27 -21 -69 -4 -86 18 -18 46 -14 58 8
6 11 17 20 25 20 8 0 19 -9 25 -20 14 -26 32 -25 55 0 11 12 28 20 39 19 35
-2 37 0 21 37 -8 20 -15 47 -15 60 0 18 -5 24 -22 23 -13 0 -32 2 -44 6 -13 4
-25 1 -34 -9z m-50 -70 c0 -8 -6 -19 -14 -25 -20 -16 -30 3 -16 29 11 21 30
19 30 -4z"></path>
<path d="M4204 4246 c-3 -9 -11 -16 -18 -16 -22 -1 -44 -47 -51 -106 -4 -32
-16 -78 -27 -101 -20 -42 -21 -90 -3 -86 6 1 11 11 13 23 2 11 10 20 18 20 8
0 14 9 14 20 0 11 6 20 14 20 24 0 29 -19 11 -46 -26 -41 -6 -48 30 -11 32 33
33 36 24 78 -8 34 -7 53 6 86 9 24 21 43 26 43 5 0 9 11 9 25 0 14 -4 25 -10
25 -5 0 -10 -9 -10 -21 0 -12 -5 -19 -12 -16 -8 2 -12 17 -10 35 3 33 -14 53
-24 28z"></path>
<path d="M4614 4175 c-18 -19 -40 -35 -49 -35 -10 0 -34 -17 -54 -38 -41 -44
-114 -73 -133 -54 -7 7 -22 12 -34 12 -12 0 -27 7 -34 15 -15 19 -39 19 -46 2
-7 -19 13 -67 27 -67 7 0 20 -7 30 -16 27 -25 128 13 195 73 29 27 69 61 88
76 34 27 36 28 36 9 0 -30 16 -35 45 -16 30 19 33 49 6 64 -31 16 -41 12 -77
-25z"></path>
<path d="M3506 4173 c-4 -4 -18 -8 -29 -8 -20 0 -22 -6 -23 -60 -2 -85 -10
-165 -18 -197 -6 -19 -4 -28 3 -28 38 0 -52 -88 -101 -100 -18 -5 -24 -14 -26
-42 -3 -39 11 -78 29 -78 20 0 69 -44 69 -62 0 -10 16 -36 36 -58 36 -40 74
-51 118 -34 26 10 18 27 -8 20 -46 -11 -146 47 -122 71 3 3 26 -2 52 -12 47
-18 51 -17 117 17 10 5 32 6 48 3 27 -6 29 -4 29 23 0 16 -9 37 -20 47 -11 10
-20 28 -20 41 0 31 -16 39 -45 20 -31 -21 -35 -20 -35 5 0 31 -17 56 -44 63
-35 9 -43 52 -14 75 19 16 20 21 9 35 -7 9 -20 16 -27 16 -22 0 -16 17 9 24
l22 7 -22 16 c-30 20 -31 47 -2 40 12 -3 32 1 46 10 22 15 23 17 7 34 -10 11
-24 19 -32 19 -9 0 -12 6 -8 16 3 9 6 20 6 25 0 5 12 14 26 19 14 6 24 16 22
23 -5 14 -40 21 -52 10z m-46 -418 c0 -8 -7 -15 -15 -15 -8 0 -15 7 -15 15 0
8 7 15 15 15 8 0 15 -7 15 -15z m200 -120 c0 -8 -4 -15 -10 -15 -5 0 -10 7
-10 15 0 8 5 15 10 15 6 0 10 -7 10 -15z"></path>
<path d="M3030 4091 c-16 -30 -12 -41 17 -52 35 -13 46 0 32 39 -12 36 -33 41
-49 13z"></path>
<path d="M1100 4083 c0 -5 23 -31 50 -58 31 -30 50 -43 50 -34 0 9 -22 35 -50
58 -27 23 -50 38 -50 34z"></path>
<path d="M4715 4081 c-7 -12 12 -24 25 -16 11 7 4 25 -10 25 -5 0 -11 -4 -15
-9z"></path>
<path d="M5943 3989 c-10 -11 -37 -41 -60 -65 -24 -24 -43 -48 -43 -54 0 -6
-20 -20 -45 -31 -47 -21 -52 -28 -34 -46 13 -13 -22 -53 -71 -78 -53 -27 -146
-101 -240 -190 -47 -45 -106 -92 -133 -104 -26 -13 -82 -56 -125 -95 -42 -40
-95 -84 -117 -98 -50 -32 -117 -99 -173 -172 l-43 -57 28 3 c25 3 28 0 25 -24
-3 -32 12 -37 28 -9 13 25 38 18 87 -23 48 -40 89 -66 104 -66 19 0 -20 38
-63 62 -21 12 -45 32 -53 45 -9 13 -25 23 -39 23 -27 0 -53 25 -36 35 5 3 10
15 10 25 0 22 109 124 161 151 21 10 46 34 58 53 12 18 34 39 50 46 16 6 41
25 57 41 15 16 33 29 38 29 22 1 96 59 169 132 41 42 83 79 95 82 11 4 28 18
37 32 22 34 74 64 111 64 16 0 34 4 40 10 5 5 36 11 69 13 48 2 66 8 88 29 34
32 37 68 5 61 -13 -3 -32 -15 -43 -28 -25 -28 -105 -50 -105 -29 0 8 9 14 21
14 15 0 19 5 14 19 -4 14 5 26 41 50 26 17 54 31 62 31 22 0 83 40 76 51 -3 5
-16 9 -30 9 -29 0 -32 16 -4 23 12 3 20 14 20 25 0 31 -17 36 -37 11z"></path>
<path d="M6010 3996 c0 -8 21 -33 46 -55 l46 -41 -27 -10 c-14 -5 -36 -8 -48
-5 -15 4 -26 -1 -35 -16 -19 -30 -8 -35 38 -14 40 18 40 18 64 -4 29 -28 52
-20 35 11 -8 14 -8 23 0 31 19 19 12 37 -13 37 -14 0 -40 16 -65 40 -23 23
-41 34 -41 26z"></path>
<path d="M2461 3928 c-19 -25 -31 -52 -29 -66 4 -33 21 -28 31 10 5 18 18 43
30 56 14 15 18 25 10 33 -7 7 -20 -3 -42 -33z"></path>
<path d="M4008 3883 c-18 -15 -51 -37 -73 -48 -22 -10 -52 -27 -67 -37 -14
-10 -35 -18 -46 -18 -11 0 -25 -7 -32 -15 -15 -18 -55 -13 -102 11 -19 10 -29
11 -34 3 -12 -20 23 -41 77 -47 43 -6 56 -12 64 -29 10 -24 58 -33 70 -13 3 6
14 10 25 10 22 0 95 60 127 104 13 17 35 38 51 47 36 21 36 53 0 57 -17 2 -37
-6 -60 -25z m-111 -129 c3 -8 1 -20 -5 -26 -14 -14 -62 -1 -62 16 0 13 10 17
53 25 4 0 10 -6 14 -15z"></path>
<path d="M4135 3897 c-11 -9 -14 -16 -7 -21 13 -8 62 10 62 24 0 14 -33 12
-55 -3z"></path>
<path d="M1200 3869 c0 -5 5 -7 10 -4 6 3 10 8 10 11 0 2 -4 4 -10 4 -5 0 -10
-5 -10 -11z"></path>
<path d="M1214 3828 c-4 -6 6 -22 23 -37 16 -14 35 -37 41 -51 7 -14 16 -32
21 -40 5 -8 12 -23 15 -33 7 -24 63 -20 57 3 -2 8 -6 27 -9 42 -3 17 -14 30
-33 38 -17 7 -32 23 -35 36 -3 13 -20 30 -37 39 -36 18 -34 18 -43 3z"></path>
<path d="M5480 3824 c0 -8 5 -12 10 -9 6 3 10 10 10 16 0 5 -4 9 -10 9 -5 0
-10 -7 -10 -16z"></path>
<path d="M4134 3796 c-26 -32 -32 -49 -16 -44 17 6 62 67 53 72 -5 4 -22 -9
-37 -28z"></path>
<path d="M3150 3756 c0 -8 9 -24 19 -37 16 -19 22 -21 32 -12 10 10 8 18 -11
38 -26 28 -40 32 -40 11z"></path>
<path d="M3255 3760 c-4 -6 -4 -23 -1 -36 6 -22 9 -24 22 -13 17 14 15 50 -3
56 -6 2 -14 -1 -18 -7z"></path>
<path d="M2602 3720 l-24 -19 23 -41 c28 -49 56 -53 70 -10 10 26 14 29 37 23
24 -6 26 -5 13 10 -7 10 -19 17 -26 17 -6 0 -20 9 -30 20 -22 25 -34 25 -63 0z"></path>
<path d="M2420 3636 c0 -56 11 -88 25 -74 8 8 -8 138 -16 138 -5 0 -9 -29 -9
-64z"></path>
<path d="M3703 3675 c-3 -9 -2 -19 1 -23 8 -8 38 10 44 26 6 18 -38 14 -45 -3z"></path>
<path d="M2514 3665 c-8 -21 4 -35 32 -35 29 0 32 25 5 40 -26 13 -31 13 -37
-5z"></path>
<path d="M2350 3615 c-10 -12 -9 -16 4 -21 16 -6 46 11 46 27 0 15 -37 10 -50
-6z"></path>
<path d="M1550 3587 c0 -15 35 -68 60 -92 40 -38 52 -23 13 18 -17 17 -36 42
-42 55 -10 18 -31 31 -31 19z"></path>
<path d="M1682 3439 c13 -17 61 -69 108 -117 89 -91 132 -142 213 -252 43 -58
67 -82 67 -66 0 14 -54 92 -128 184 -108 135 -345 364 -260 251z"></path>
<path d="M3815 3065 c-27 -13 -55 -25 -62 -25 -14 0 -78 -89 -70 -97 8 -8 65
35 77 58 6 10 21 19 33 19 28 0 100 48 92 61 -9 13 -14 12 -70 -16z"></path>
<path d="M4800 2990 c0 -5 5 -10 10 -10 6 0 10 5 10 10 0 6 -4 10 -10 10 -5 0
-10 -4 -10 -10z"></path>
<path d="M3365 2980 c-4 -7 -3 -16 3 -22 14 -14 45 -2 40 15 -6 16 -34 21 -43
7z"></path>
<path d="M3610 2956 c-7 -9 -20 -16 -30 -16 -10 0 -23 -6 -29 -14 -9 -11 -6
-17 15 -31 26 -17 27 -17 57 14 29 28 30 32 16 46 -14 14 -17 15 -29 1z"></path>
<path d="M1985 2929 c-24 -16 -40 -19 -80 -15 -47 5 -134 -15 -186 -44 -9 -5
-34 -12 -55 -16 -22 -4 -53 -13 -71 -21 -18 -7 -45 -13 -60 -13 -15 -1 -46
-14 -68 -30 -64 -47 -161 -90 -201 -90 -12 0 -26 -5 -29 -11 -4 -5 -18 -14
-31 -19 -18 -7 -24 -17 -24 -39 0 -27 -6 -33 -62 -59 -35 -16 -72 -39 -82 -51
-11 -11 -25 -21 -32 -21 -7 0 -28 -18 -47 -40 -19 -22 -43 -40 -54 -40 -11 0
-37 -13 -58 -30 -20 -16 -46 -32 -58 -36 -12 -4 -47 -29 -78 -55 -31 -27 -61
-49 -67 -49 -5 0 -15 -7 -22 -15 -7 -8 -20 -15 -29 -15 -10 0 -28 -11 -41 -25
-30 -32 -20 -32 33 2 23 15 58 36 77 46 19 11 66 42 105 69 38 28 97 65 130
82 34 17 77 49 95 69 19 22 67 55 111 77 43 22 80 44 84 49 10 17 95 71 111
71 8 0 17 7 20 15 4 8 15 15 25 15 10 0 41 16 68 35 26 19 60 35 75 35 15 0
52 14 83 31 49 27 87 38 143 41 8 0 22 7 32 15 25 22 105 43 162 43 52 0 117
25 124 48 5 18 -9 15 -43 -9z"></path>
<path d="M4737 2934 c-13 -14 6 -24 43 -24 48 0 60 15 19 24 -40 8 -54 8 -62
0z"></path>
<path d="M3453 2914 c-7 -20 3 -43 23 -51 17 -6 56 33 51 52 -5 15 -68 15 -74
-1z"></path>
<path d="M3290 2895 c0 -2 18 -31 40 -63 43 -62 78 -89 105 -79 14 6 14 9 -2
34 -23 37 -64 72 -85 73 -10 0 -22 9 -28 20 -9 18 -30 28 -30 15z"></path>
<path d="M5170 2891 c-8 -5 -12 -12 -10 -14 5 -4 129 -24 220 -36 30 -4 64
-12 75 -18 11 -5 46 -13 79 -16 34 -3 66 -13 77 -23 15 -13 22 -14 33 -5 17
14 28 9 71 -31 33 -31 118 -78 141 -78 8 0 27 -8 41 -17 17 -12 55 -20 102
-23 74 -5 76 -6 90 -37 8 -18 18 -33 23 -33 11 0 10 33 -2 64 -9 25 -13 26
-92 27 -63 0 -90 5 -113 19 -16 11 -47 30 -69 42 -79 47 -127 78 -153 101 -19
17 -36 19 -116 18 -82 -1 -98 2 -121 20 -22 17 -35 20 -69 15 -29 -5 -52 -2
-73 9 -40 19 -115 29 -134 16z"></path>
<path d="M2144 2803 c-25 -27 -37 -29 -54 -8 -9 11 -33 15 -99 14 -108 -1
-135 -8 -139 -37 -2 -12 -9 -22 -15 -23 -83 -4 -135 -9 -205 -20 -80 -13 -83
-14 -77 -37 10 -40 -18 -60 -96 -68 -38 -4 -72 -11 -75 -16 -8 -13 15 -37 55
-56 41 -20 65 -77 56 -134 -5 -26 -2 -44 9 -60 9 -12 16 -30 16 -39 0 -22 31
-48 61 -51 22 -3 24 0 21 30 -4 41 -20 34 398 185 65 24 99 41 106 56 17 32
22 35 39 21 13 -11 30 -8 99 14 118 39 138 53 155 111 12 42 12 52 0 73 -26
47 -58 60 -149 64 -78 3 -87 2 -106 -19z"></path>
<path d="M2470 2799 c7 -11 14 -18 17 -15 8 8 -5 36 -17 36 -7 0 -7 -6 0 -21z"></path>
<path d="M4795 2808 c-22 -5 -54 -6 -72 -3 -27 5 -35 1 -57 -28 -32 -42 -33
-60 -4 -79 20 -14 21 -17 8 -33 -13 -15 -12 -19 7 -35 12 -10 53 -26 90 -35
37 -10 75 -24 83 -31 8 -6 38 -19 65 -27 28 -8 97 -35 154 -60 l103 -46 11 30
c13 33 27 38 27 10 0 -23 17 -38 83 -69 145 -68 302 -99 349 -68 14 9 33 14
42 10 14 -5 16 -2 10 20 -5 20 -2 26 10 26 9 0 16 -7 16 -15 0 -19 77 -75 104
-75 12 0 43 -7 70 -15 43 -13 52 -13 71 -1 24 16 35 62 28 113 -7 46 -53 85
-110 94 -48 7 -117 30 -129 42 -4 4 -1 14 6 22 18 22 2 35 -51 42 -23 4 -54
12 -68 19 -21 11 -28 11 -42 -2 -14 -13 -18 -13 -29 1 -7 8 -20 15 -30 15 -9
0 -25 9 -35 20 -15 16 -16 22 -5 35 8 10 10 19 4 25 -10 10 -156 30 -224 30
-25 0 -55 6 -66 13 -12 6 -35 20 -53 30 -17 9 -59 20 -93 23 -70 7 -75 7 -134
-2 -26 -4 -44 -2 -48 5 -8 13 -35 13 -91 -1z m835 -234 c0 -8 -4 -12 -10 -9
-5 3 -10 10 -10 16 0 5 5 9 10 9 6 0 10 -7 10 -16z"></path>
<path d="M2517 2803 c-4 -6 -4 -25 -1 -41 8 -38 78 -92 96 -74 9 9 2 21 -28
49 -21 21 -44 47 -50 57 -7 13 -13 16 -17 9z"></path>
<path d="M5652 2746 c1 -10 8 -17 13 -17 15 1 12 24 -3 29 -9 3 -13 -2 -10
-12z"></path>
<path d="M4330 2720 c0 -9 -42 -30 -94 -46 -16 -5 -28 -13 -25 -19 9 -22 137
8 154 35 4 6 1 17 -5 25 -14 17 -30 20 -30 5z"></path>
<path d="M4500 2719 c0 -5 5 -7 10 -4 6 3 10 8 10 11 0 2 -4 4 -10 4 -5 0 -10
-5 -10 -11z"></path>
<path d="M4444 2705 c-8 -21 4 -35 32 -35 29 0 31 11 6 33 -23 21 -31 21 -38
2z"></path>
<path d="M3510 2699 c0 -5 5 -7 10 -4 6 3 10 8 10 11 0 2 -4 4 -10 4 -5 0 -10
-5 -10 -11z"></path>
<path d="M2761 2681 c-22 -14 -3 -31 35 -31 36 0 46 14 17 24 -10 3 -22 8 -28
11 -5 3 -16 1 -24 -4z"></path>
<path d="M2441 2643 c-17 -21 -27 -41 -23 -45 7 -7 85 12 98 24 8 9 -22 58
-36 58 -4 0 -22 -17 -39 -37z"></path>
<path d="M2862 2638 c3 -7 13 -14 24 -16 10 -2 28 -7 39 -12 11 -4 28 -11 38
-14 29 -9 20 -29 -10 -21 l-28 7 28 -26 c35 -33 34 -50 -6 -73 l-32 -20 -35
34 c-19 19 -50 43 -67 54 -18 11 -33 26 -33 33 0 15 -27 40 -53 49 -24 9 21
-49 98 -126 30 -30 56 -61 56 -68 1 -8 2 -30 3 -49 1 -31 4 -35 39 -43 50 -12
70 4 61 47 -3 17 -11 36 -16 43 -6 8 -4 20 7 37 22 34 28 33 23 -3 -2 -17 -1
-28 3 -25 16 9 39 68 34 85 -4 11 1 18 17 22 22 6 22 7 -12 37 -21 18 -43 28
-54 25 -11 -2 -30 5 -44 16 -28 21 -86 27 -80 7z"></path>
<path d="M4100 2640 c-8 -5 -27 -10 -42 -10 -15 0 -30 -5 -34 -11 -10 -17 12
-33 33 -23 10 4 38 13 63 18 24 6 43 16 42 21 -2 14 -44 17 -62 5z"></path>
<path d="M4516 2641 c-11 -4 -15 -10 -10 -14 14 -8 54 3 54 14 0 11 -17 11
-44 0z"></path>
<path d="M4213 2613 c-22 -4 -31 -31 -17 -46 9 -8 64 34 58 45 -3 4 -8 7 -12
7 -4 -1 -17 -4 -29 -6z"></path>
<path d="M1284 2578 c-4 -6 2 -17 12 -25 19 -14 19 -14 0 -29 -11 -8 -39 -14
-62 -14 -38 0 -162 -34 -192 -54 -10 -6 -10 -11 -1 -22 18 -21 3 -60 -28 -72
-16 -6 -54 -18 -86 -26 -32 -8 -69 -22 -83 -31 -24 -15 -25 -20 -19 -68 7 -47
6 -50 -9 -38 -9 7 -16 22 -16 32 0 27 -20 34 -35 12 -8 -11 -32 -25 -54 -32
-28 -8 -46 -21 -56 -41 -18 -34 -18 -34 -45 -18 -15 10 -22 9 -38 -5 -14 -13
-28 -16 -46 -11 -15 4 -26 2 -26 -4 0 -14 49 -52 66 -52 8 0 14 -6 14 -13 0
-18 -67 -81 -107 -101 -24 -12 -33 -23 -33 -41 0 -31 20 -43 35 -22 9 13 27
17 71 16 80 -1 109 -10 109 -34 0 -18 6 -20 75 -17 41 2 80 7 85 12 6 4 27 10
49 13 30 5 42 2 55 -12 25 -29 87 -17 106 20 19 36 19 60 0 85 -21 28 -19 29
28 26 35 -3 49 1 74 22 17 14 36 26 41 26 6 0 13 8 16 18 6 18 66 59 66 45 0
-5 -14 -25 -30 -45 -28 -34 -30 -41 -25 -95 3 -32 8 -76 11 -97 6 -33 4 -38
-10 -33 -9 4 -23 10 -31 13 -24 10 -17 -12 10 -30 27 -18 135 -23 135 -6 0 6
-13 10 -30 10 -38 0 -39 16 -2 24 15 4 64 19 109 33 80 26 83 26 103 8 11 -10
17 -22 14 -26 -3 -5 1 -9 10 -9 8 0 16 3 18 8 4 10 63 42 78 42 17 0 98 38
105 50 9 14 51 12 63 -3 21 -24 -13 -57 -59 -57 -21 0 -39 -4 -39 -10 0 -6 26
-10 59 -10 33 0 63 -4 66 -10 9 -15 51 -12 64 3 16 20 4 26 -35 20 -59 -10
-38 29 24 42 18 4 56 23 85 42 76 51 104 64 134 61 22 -3 27 2 38 37 11 34 13
36 14 14 2 -53 24 -54 100 -9 72 43 88 69 59 98 -9 9 -8 12 4 12 24 0 31 -17
34 -78 3 -63 -8 -92 -33 -86 -26 7 -142 -111 -125 -128 21 -21 13 -43 -28 -91
-22 -25 -40 -49 -40 -54 0 -6 -9 -18 -21 -29 -18 -16 -20 -27 -16 -94 7 -122
15 -141 72 -170 49 -25 70 -50 41 -50 -8 0 -31 9 -50 21 -33 19 -56 19 -56 0
0 -5 17 -29 38 -55 34 -43 39 -45 72 -40 19 4 53 17 76 30 23 14 57 24 78 24
43 0 76 15 76 34 0 8 13 19 30 24 16 6 40 22 52 35 16 17 38 26 72 29 41 5 56
13 100 56 48 46 88 73 128 86 16 5 32 25 98 128 17 25 37 49 45 52 22 8 19 69
-5 99 -11 14 -20 30 -20 36 0 18 -44 41 -81 41 -30 0 -56 -15 -165 -99 -71
-55 -128 -104 -127 -109 3 -14 -15 -27 -55 -40 -31 -10 -33 -10 -43 14 -8 24
-1 36 82 136 180 217 249 305 249 315 0 19 -25 34 -37 22 -8 -8 -30 -3 -79 16
-61 24 -72 26 -102 15 -18 -6 -36 -9 -39 -7 -9 9 7 27 25 27 9 0 26 7 36 15
28 21 83 18 122 -6 42 -26 117 -24 122 4 6 29 -46 121 -101 181 -43 45 -59 56
-84 56 -18 0 -34 -4 -37 -9 -3 -4 -25 -11 -48 -14 -24 -4 -65 -13 -93 -21 -27
-8 -94 -26 -148 -41 -105 -28 -137 -42 -137 -62 0 -15 -42 -17 -56 -3 -7 7
-31 2 -74 -15 -35 -14 -71 -25 -79 -25 -20 0 -201 -50 -223 -61 -10 -5 -29 -9
-43 -9 -37 0 -31 -27 8 -34 90 -19 93 -18 149 13 44 25 65 31 106 29 29 -1 52
-5 52 -8 -1 -13 -52 -40 -95 -50 -25 -6 -69 -22 -95 -35 -60 -30 -65 -30 -97
-5 -24 18 -35 19 -157 13 -118 -5 -134 -8 -159 -29 -25 -21 -67 -33 -67 -19 0
3 7 16 15 29 14 21 14 26 0 52 -8 16 -15 43 -15 61 0 34 31 103 56 124 17 14
17 22 4 69 -15 52 -96 100 -116 68z m-278 -460 c7 -10 -20 -38 -38 -38 -4 0
-8 11 -8 25 0 18 5 25 19 25 11 0 23 -5 27 -12z m-96 -27 c62 -22 73 -37 37
-50 -14 -5 -27 -16 -29 -23 -4 -11 -8 -11 -21 1 -10 8 -31 12 -52 9 -70 -8
-87 58 -19 73 16 4 29 7 29 8 1 0 25 -8 55 -18z"></path>
<path d="M3980 2566 c0 -13 -7 -29 -15 -36 -8 -7 -12 -17 -9 -22 8 -13 53 41
54 65 0 9 -7 17 -15 17 -9 0 -15 -9 -15 -24z"></path>
<path d="M4096 2561 c-11 -12 -15 -27 -12 -38 11 -31 53 -76 65 -69 14 9 15
36 1 36 -5 0 -10 5 -10 10 0 6 9 10 20 10 11 0 20 5 20 10 0 6 -5 10 -10 10
-6 0 -21 11 -34 25 -23 24 -23 24 -40 6z"></path>
<path d="M4395 2540 c-4 -6 -21 -16 -39 -24 -31 -13 -76 -67 -112 -138 -19
-36 -12 -70 22 -115 13 -17 24 -36 24 -41 0 -16 46 -52 66 -52 10 0 32 11 49
24 25 20 27 26 17 39 -8 9 -16 40 -19 69 -4 45 -2 56 16 72 11 11 21 25 21 31
0 7 7 18 15 25 16 13 20 67 7 86 -7 11 -45 34 -56 34 -3 0 -8 -5 -11 -10z"></path>
<path d="M6040 2520 c0 -5 5 -10 10 -10 6 0 10 5 10 10 0 6 -4 10 -10 10 -5 0
-10 -4 -10 -10z"></path>
<path d="M6195 2510 c-10 -11 -24 -20 -32 -20 -17 0 -17 -19 0 -24 25 -8 43
-17 72 -36 17 -11 40 -24 52 -29 23 -10 79 -65 172 -167 48 -53 69 -90 125
-217 30 -69 17 -74 -55 -21 -44 32 -48 39 -46 72 1 27 -2 37 -13 37 -11 0 -15
-11 -15 -42 0 -26 -7 -52 -21 -69 -25 -34 -51 -46 -39 -18 5 11 8 30 7 44 -5
68 -1 85 23 110 l26 28 -43 20 c-24 11 -60 27 -81 36 -23 9 -41 25 -47 42 -10
26 -11 26 -30 9 -11 -10 -20 -24 -20 -32 0 -7 -4 -13 -8 -13 -5 0 -8 19 -8 42
1 35 -3 43 -19 46 -11 2 -30 8 -42 14 -33 17 -96 -7 -143 -55 -39 -39 -39 -39
-25 -74 16 -37 19 -90 9 -118 -5 -11 -16 7 -38 57 -27 65 -36 76 -76 96 -28
14 -56 21 -75 19 -19 -3 -53 6 -93 24 -53 24 -67 26 -88 17 -19 -9 -40 -9 -84
0 -51 11 -64 10 -91 -3 -28 -15 -34 -15 -64 -1 -18 9 -41 16 -51 16 -10 0 -44
9 -77 21 -50 18 -63 19 -88 9 -16 -7 -31 -11 -32 -9 -1 2 -7 13 -13 24 -6 11
-24 24 -40 28 -16 5 -45 13 -64 19 -19 5 -44 13 -55 18 -11 5 -40 13 -65 19
-51 12 -149 39 -258 71 -95 28 -106 24 -87 -30 12 -33 12 -45 2 -61 -9 -15 -9
-23 0 -37 7 -9 19 -30 26 -47 22 -49 41 -58 125 -60 42 -1 96 -5 118 -9 37 -7
47 -5 96 27 49 31 60 34 106 29 29 -2 52 -7 52 -11 -1 -12 -72 -51 -93 -51
-12 0 -51 -14 -85 -30 -75 -35 -86 -36 -119 -10 -23 18 -36 19 -147 14 -103
-5 -126 -10 -156 -29 -19 -12 -47 -26 -62 -29 -15 -3 -32 -15 -38 -26 -9 -17
-1 -31 53 -97 145 -177 167 -208 167 -230 0 -17 -6 -23 -23 -23 -13 0 -28 5
-34 11 -6 6 -20 16 -31 23 -11 6 -68 50 -127 98 -59 48 -112 85 -116 82 -5 -3
-9 -16 -9 -29 0 -29 -22 -38 -49 -19 -12 9 -31 14 -44 12 -18 -2 -22 -9 -20
-38 4 -87 36 -171 69 -184 11 -4 14 -13 11 -28 -7 -26 17 -58 44 -58 10 0 59
-38 108 -85 50 -47 94 -85 99 -85 4 0 13 5 19 11 8 8 21 8 50 -1 21 -7 44 -14
51 -16 8 -2 16 -13 19 -24 3 -11 24 -31 48 -44 38 -23 46 -24 75 -13 29 11 34
10 53 -14 23 -27 111 -89 127 -89 5 0 14 9 21 21 9 18 16 20 47 14 21 -4 42
-10 47 -15 21 -16 70 -18 87 -3 12 11 21 12 37 4 25 -14 128 -14 136 -1 3 6
39 10 78 11 117 1 171 11 175 32 10 51 -94 80 -133 37 -18 -20 -42 -20 -113 2
-37 11 -82 54 -82 79 0 9 -7 22 -15 29 -8 7 -15 17 -15 22 0 6 -10 23 -21 40
-19 26 -21 40 -17 124 6 132 -18 126 -29 -7 -5 -64 -4 -70 37 -145 59 -109 89
-152 111 -159 11 -4 19 -12 19 -20 0 -16 -47 -28 -115 -30 -27 -1 -60 -5 -72
-9 -20 -7 -23 -5 -23 15 -1 13 -7 35 -15 49 -23 40 -19 69 11 80 14 6 24 13
22 18 -21 48 -76 126 -91 130 -16 4 -19 11 -14 48 4 41 1 47 -60 124 -54 68
-64 84 -58 108 5 24 -3 36 -65 99 -39 40 -70 80 -70 91 0 26 28 36 54 19 12
-8 52 -31 90 -52 62 -34 70 -36 81 -21 16 22 41 20 82 -5 38 -24 65 -21 107
12 25 20 27 27 24 77 -2 40 1 56 11 60 11 3 12 -11 8 -72 -4 -67 -7 -78 -31
-97 -35 -27 -33 -37 12 -55 20 -8 45 -19 56 -25 21 -12 32 -4 38 26 4 26 44
32 69 9 25 -22 34 -12 31 34 -2 33 -1 35 10 17 7 -11 17 -33 23 -50 8 -23 19
-32 54 -42 24 -7 50 -18 57 -24 12 -9 19 -7 37 10 28 26 38 26 85 3 20 -10 63
-25 95 -32 38 -9 65 -22 77 -37 18 -23 19 -23 204 -21 250 4 255 22 7 25
l-185 1 -3 25 c-6 44 60 74 96 44 27 -23 93 -35 171 -31 41 2 94 4 117 4 23 0
45 5 48 10 4 6 -3 27 -15 47 -11 19 -19 38 -16 40 3 3 22 -8 43 -25 21 -16 47
-31 58 -33 19 -4 18 -5 -4 -26 -28 -26 -21 -30 47 -31 48 -1 54 2 63 25 9 25
11 25 97 22 l87 -4 3 28 c2 16 -1 34 -6 40 -6 7 -13 29 -17 49 -4 21 -13 42
-21 49 -8 6 -14 20 -14 30 0 11 -20 44 -45 75 -25 30 -45 61 -45 69 0 8 -19
33 -42 57 -32 34 -43 53 -47 88 -6 41 -9 45 -36 48 -17 2 -45 18 -65 37 -47
44 -72 51 -95 25z m-822 -307 c11 -4 17 -15 17 -34 0 -36 -16 -38 -32 -4 -6
14 -17 25 -25 25 -7 0 -13 7 -13 16 0 11 5 14 18 9 9 -4 25 -10 35 -12z m837
-97 c-7 -39 -16 -63 -22 -60 -11 7 -4 66 12 110 18 46 23 18 10 -50z m-205
-127 c19 -36 12 -52 -10 -23 -14 18 -21 54 -10 54 2 0 12 -14 20 -31z m-1420
-219 c3 -6 -1 -13 -10 -16 -19 -8 -30 0 -20 15 8 14 22 14 30 1z m908 -367
c12 -11 -14 -33 -39 -33 -28 0 -31 15 -6 29 20 12 36 14 45 4z"></path>
<path d="M6072 2488 c5 -15 28 -18 29 -3 0 6 -7 12 -17 13 -10 3 -15 -1 -12
-10z"></path>
<path d="M3984 2459 c-8 -14 21 -43 35 -35 17 11 13 24 -8 36 -14 7 -22 7 -27
-1z"></path>
<path d="M6010 2450 c0 -5 5 -10 11 -10 5 0 7 5 4 10 -3 6 -8 10 -11 10 -2 0
-4 -4 -4 -10z"></path>
<path d="M4050 2441 c0 -5 7 -14 15 -21 18 -15 42 1 31 19 -8 13 -46 15 -46 2z"></path>
<path d="M4077 2373 c-3 -5 -8 -23 -12 -42 -5 -26 -4 -32 6 -29 15 5 31 66 18
73 -4 3 -10 2 -12 -2z"></path>
<path d="M6286 2361 c-7 -10 28 -44 37 -35 7 7 -14 44 -25 44 -4 0 -9 -4 -12
-9z"></path>
<path d="M3985 2310 c-7 -23 21 -94 34 -86 11 7 -2 99 -16 103 -6 2 -14 -5
-18 -17z"></path>
<path d="M3035 2310 c-10 -16 16 -43 28 -31 11 11 2 41 -12 41 -5 0 -13 -5
-16 -10z"></path>
<path d="M2857 2282 c-10 -10 -17 -22 -17 -25 0 -4 -12 -26 -26 -48 -31 -49
-29 -75 6 -71 14 2 30 8 35 12 15 12 109 -17 129 -39 9 -10 20 -45 24 -77 6
-50 10 -59 27 -59 14 0 19 6 17 20 -2 11 -4 37 -6 58 -1 25 -9 45 -22 55 -11
10 -28 43 -38 74 -14 48 -24 63 -61 88 -24 16 -45 30 -48 30 -2 0 -11 -8 -20
-18z"></path>
<path d="M4140 2291 c0 -6 5 -13 10 -16 6 -3 10 1 10 9 0 9 -4 16 -10 16 -5 0
-10 -4 -10 -9z"></path>
<path d="M4076 2281 c-4 -5 -2 -12 3 -15 5 -4 12 -2 15 3 4 5 2 12 -3 15 -5 4
-12 2 -15 -3z"></path>
<path d="M4094 2213 c-3 -10 -10 -29 -15 -42 -15 -38 3 -46 50 -21 l42 21 -30
29 c-34 35 -40 36 -47 13z"></path>
<path d="M4004 2187 c-4 -11 1 -93 7 -107 1 -3 2 -12 3 -20 2 -25 19 -17 29
14 8 24 6 32 -7 42 -16 11 -16 13 -1 21 13 8 14 15 6 36 -11 29 -28 35 -37 14z"></path>
<path d="M458 2046 c-27 -33 -37 -66 -20 -66 7 1 62 83 62 94 0 15 -17 3 -42
-28z"></path>
<path d="M3525 1970 c-4 -6 -3 -16 3 -22 6 -6 12 -6 17 2 4 6 3 16 -3 22 -6 6
-12 6 -17 -2z"></path>
<path d="M1084 1955 c-14 -35 41 -60 66 -30 10 12 10 18 0 30 -16 19 -59 19
-66 0z"></path>
<path d="M1955 1940 c-3 -5 4 -14 17 -19 34 -13 78 -57 78 -79 0 -10 -11 -29
-25 -42 -17 -16 -25 -34 -25 -56 0 -17 -7 -37 -15 -44 -8 -7 -15 -23 -15 -35
0 -12 -11 -39 -25 -59 -24 -36 -32 -66 -17 -66 8 0 64 114 85 175 8 22 24 58
35 80 12 23 22 64 24 95 l3 55 -57 3 c-32 2 -59 -2 -63 -8z"></path>
<path d="M3003 1938 c-6 -7 -14 -23 -17 -35 -6 -20 -3 -23 33 -29 54 -9 72
-45 64 -131 -4 -40 -2 -68 6 -76 6 -8 8 -27 5 -45 -5 -22 -1 -39 15 -60 17
-25 21 -45 21 -117 0 -66 6 -104 25 -161 14 -41 25 -88 25 -106 0 -34 65 -178
80 -178 13 0 14 -4 -25 87 -19 45 -35 92 -35 105 0 12 -10 55 -21 93 -12 39
-25 115 -29 170 -5 55 -17 134 -29 175 -14 53 -19 89 -15 122 6 46 -9 108 -26
108 -4 0 -13 13 -20 29 -17 42 -44 65 -57 49z"></path>
<path d="M3526 1893 c-12 -12 -6 -43 9 -43 8 0 15 9 15 19 0 21 -13 34 -24 24z"></path>
<path d="M5255 1890 c-11 -5 -39 -9 -61 -9 -39 -1 -42 -3 -46 -31 -3 -17 -1
-33 2 -35 10 -6 65 22 80 40 16 20 121 19 175 0 54 -20 115 -20 115 0 0 11
-11 15 -37 15 -21 0 -60 7 -87 15 -54 16 -110 18 -141 5z"></path>
<path d="M1608 1883 c-10 -2 -18 -9 -18 -14 0 -15 43 -7 48 9 4 12 0 13 -30 5z"></path>
<path d="M6480 1860 l-35 -29 -94 10 c-63 7 -97 7 -104 0 -15 -15 3 -19 119
-25 l101 -5 32 32 c51 53 39 65 -19 17z"></path>
<path d="M520 1867 c0 -31 35 -45 133 -52 68 -5 97 -4 97 4 0 6 -17 11 -37 11
-48 1 -152 25 -166 39 -15 15 -27 14 -27 -2z"></path>
<path d="M1048 1863 c-10 -2 -18 -9 -18 -14 0 -15 43 -7 48 9 4 12 0 13 -30 5z"></path>
<path d="M5550 1861 c0 -12 37 -24 50 -16 20 12 10 25 -20 25 -16 0 -30 -4
-30 -9z"></path>
<path d="M5670 1850 c0 -5 7 -10 15 -10 8 0 15 5 15 10 0 6 -7 10 -15 10 -8 0
-15 -4 -15 -10z"></path>
<path d="M823 1843 c-82 -8 -43 -23 57 -23 60 0 100 4 100 10 0 6 -20 10 -44
10 -24 0 -50 1 -58 3 -7 2 -32 2 -55 0z"></path>
<path d="M3980 1793 c-22 -51 -19 -64 10 -45 11 7 35 12 54 12 29 0 41 -8 76
-50 23 -27 47 -50 53 -51 7 0 26 -19 42 -42 17 -23 46 -50 65 -59 18 -10 38
-24 43 -33 6 -12 99 -65 114 -65 13 0 -2 19 -27 33 -46 27 -183 144 -295 251
-55 53 -103 96 -107 96 -4 0 -16 -21 -28 -47z"></path>
<path d="M5740 1830 c0 -5 9 -10 20 -10 11 0 20 5 20 10 0 6 -9 10 -20 10 -11
0 -20 -4 -20 -10z"></path>
<path d="M2935 1801 c-3 -5 -1 -12 5 -16 5 -3 10 1 10 9 0 18 -6 21 -15 7z"></path>
<path d="M3520 1735 c0 -19 5 -35 10 -35 6 0 10 16 10 35 0 19 -4 35 -10 35
-5 0 -10 -16 -10 -35z"></path>
<path d="M3945 1684 c-7 -39 1 -57 15 -34 12 19 13 70 1 70 -5 0 -12 -16 -16
-36z"></path>
<path d="M2765 1609 c-4 -6 -5 -13 -2 -16 7 -7 27 6 27 18 0 12 -17 12 -25 -2z"></path>
<path d="M3916 1594 c-9 -22 3 -32 14 -14 12 19 12 30 1 30 -5 0 -12 -7 -15
-16z"></path>
<path d="M1991 1561 c-12 -22 -30 -45 -42 -51 -25 -14 -20 -33 12 -40 31 -7
35 -37 15 -97 -10 -28 -12 -51 -7 -56 15 -15 60 23 72 62 13 45 0 213 -18 218
-7 3 -21 -14 -32 -36z"></path>
<path d="M2625 1501 c-27 -14 -52 -27 -54 -28 -2 -2 -2 -6 1 -9 12 -11 88 17
99 37 6 11 9 22 7 24 -2 1 -25 -9 -53 -24z"></path>
<path d="M1900 1416 c0 -30 5 -58 10 -61 6 -3 10 -13 10 -22 0 -8 9 -28 21
-44 20 -29 20 -29 129 -29 102 0 110 2 121 21 10 20 9 21 -12 15 -13 -4 -58
-10 -99 -12 -92 -6 -134 14 -143 68 -16 100 -20 118 -28 118 -5 0 -9 -24 -9
-54z"></path>
<path d="M2513 1456 c-20 -9 -33 -36 -18 -36 13 0 64 38 58 43 -8 8 -12 8 -40
-7z"></path>
<path d="M3900 1460 c0 -5 5 -10 10 -10 6 0 10 5 10 10 0 6 -4 10 -10 10 -5 0
-10 -4 -10 -10z"></path>
<path d="M4475 1451 c-5 -9 67 -54 108 -67 12 -3 34 -15 50 -26 27 -19 66 -21
70 -4 1 5 -16 14 -38 21 -22 6 -49 16 -60 22 -72 40 -125 61 -130 54z"></path>
<path d="M3880 1369 c0 -11 5 -17 10 -14 6 3 10 13 10 21 0 8 -4 14 -10 14 -5
0 -10 -9 -10 -21z"></path>
<path d="M4730 1350 c0 -5 21 -26 46 -47 42 -35 45 -41 40 -75 -7 -42 4 -54
34 -36 24 15 26 28 5 28 -20 0 -19 10 2 25 21 15 11 31 -35 54 -20 10 -46 28
-56 40 -20 22 -36 27 -36 11z"></path>
<path d="M2258 1337 c-34 -13 -36 -27 -5 -27 23 0 47 17 47 32 0 10 -7 9 -42
-5z"></path>
<path d="M2102 1324 c1 -9 9 -19 16 -22 9 -3 13 2 10 14 -1 9 -9 19 -16 22 -9
3 -13 -2 -10 -14z"></path>
<path d="M3860 1320 c0 -5 5 -10 10 -10 6 0 10 5 10 10 0 6 -4 10 -10 10 -5 0
-10 -4 -10 -10z"></path>
<path d="M4992 1278 c5 -15 48 -18 48 -3 0 6 -11 11 -26 13 -18 3 -25 0 -22
-10z"></path>
<path d="M4922 1246 c-12 -6 -21 -15 -19 -21 6 -18 39 -11 55 13 17 25 5 28
-36 8z"></path>
<path d="M3800 1052 c0 -20 -9 -55 -21 -76 -20 -37 -20 -54 0 -42 31 20 59
156 31 156 -5 0 -10 -17 -10 -38z"></path>
<path d="M3260 952 c0 -16 7 -35 15 -42 8 -7 15 -20 15 -29 1 -19 59 -92 60
-73 0 15 -27 71 -45 92 -7 8 -15 28 -17 44 -4 40 -28 47 -28 8z"></path>
<path d="M3710 849 c-15 -28 -4 -38 15 -13 17 22 19 34 5 34 -5 0 -14 -9 -20
-21z"></path>
<path d="M3676 769 c-8 -44 -8 -55 3 -43 14 14 24 74 13 74 -5 0 -12 -14 -16
-31z"></path>
<path d="M3360 746 c0 -8 5 -18 10 -21 6 -3 10 3 10 14 0 12 -4 21 -10 21 -5
0 -10 -6 -10 -14z"></path>
<path d="M3630 660 c0 -5 5 -10 10 -10 6 0 10 5 10 10 0 6 -4 10 -10 10 -5 0
-10 -4 -10 -10z"></path>
</g>
</svg>