 <svg version="1.0" xmlns="http://www.w3.org/2000/svg" width="700.000000pt" height="623.000000pt" viewBox="0 0 700.000000 623.000000" preserveAspectRatio="xMidYMid meet">
<metadata>
Created by potrace 1.12, written by Peter Selinger 2001-2015
</metadata>
<g transform="translate(0.000000,623.000000) scale(0.100000,-0.100000)" fill="#000000" stroke="none">
<path d="M0 3115 l0 -3115 3500 0 3500 0 0 3115 0 3115 -3500 0 -3500 0 0
-3115z m3560 2715 c30 -11 54 -24 53 -30 -5 -17 31 -50 54 -50 23 0 27 -8 23
-43 -1 -10 10 -33 24 -52 14 -18 26 -44 26 -57 0 -13 7 -34 14 -48 8 -14 24
-44 35 -67 13 -28 26 -43 39 -43 22 0 53 -32 76 -77 15 -30 13 -63 -4 -63 -14
0 -31 28 -28 46 2 9 -3 19 -9 21 -26 9 -13 -42 19 -74 26 -27 29 -35 18 -47
-19 -24 -6 -46 24 -40 30 5 37 -20 9 -31 -17 -6 -17 -7 1 -21 13 -9 20 -27 21
-51 0 -21 6 -49 14 -62 11 -20 10 -27 -7 -50 -19 -26 -19 -27 -1 -50 11 -13
19 -29 19 -35 0 -19 42 -53 74 -60 l29 -7 -40 -42 c-36 -39 -39 -46 -37 -94 2
-29 10 -63 18 -75 21 -30 20 -48 -2 -48 -45 0 -51 18 -53 150 -2 117 -3 126
-25 147 -13 12 -24 33 -24 47 0 14 -7 29 -16 34 -14 8 -14 10 0 21 19 16 20
40 4 95 -15 52 -23 63 -54 70 -18 5 -30 2 -38 -10 -10 -13 -12 -9 -11 25 0 22
4 43 8 47 4 4 7 22 7 41 0 27 -5 35 -27 44 -20 7 -23 13 -15 21 22 22 12 49
-28 85 -26 23 -40 45 -40 60 0 28 -47 172 -63 191 -6 7 -20 11 -31 8 -23 -6
-46 10 -46 31 0 8 -9 34 -20 59 -28 60 -56 60 -87 2 -14 -27 -20 -52 -17 -65
6 -23 -5 -29 -44 -24 -8 1 -24 -5 -38 -14 -18 -12 -24 -24 -24 -53 0 -21 -6
-47 -14 -58 -8 -11 -17 -45 -21 -77 -7 -57 -7 -57 -41 -57 -19 0 -36 -6 -38
-12 -2 -7 -11 -35 -21 -63 -36 -103 -36 -124 -2 -167 17 -21 35 -38 42 -38 6
0 26 -16 45 -35 19 -19 40 -35 48 -35 8 0 12 -6 9 -14 -13 -32 65 -93 103 -81
10 3 22 14 25 25 7 21 35 35 35 18 0 -7 -10 -22 -22 -35 -19 -20 -20 -27 -10
-44 22 -34 2 -43 -29 -13 -25 24 -32 26 -54 16 -17 -8 -25 -20 -25 -36 0 -18
-10 -29 -40 -45 -22 -12 -45 -21 -50 -21 -6 0 -20 -10 -32 -22 -33 -33 -34 -5
-1 41 17 25 37 41 53 43 32 4 37 35 16 88 -17 43 -83 140 -95 140 -4 0 -14
-12 -21 -27 l-14 -28 -6 45 c-5 42 -7 45 -35 45 -29 0 -30 -3 -44 -65 -10 -46
-11 -72 -3 -92 7 -21 7 -28 -4 -32 -18 -7 -19 -38 -1 -34 7 2 14 0 15 -4 6
-21 0 -27 -25 -25 -39 3 -53 -31 -53 -134 0 -73 3 -89 20 -104 11 -10 28 -15
40 -12 15 4 20 0 20 -14 0 -10 -7 -19 -15 -19 -8 0 -24 -8 -34 -17 -11 -10
-31 -26 -46 -37 l-27 -18 3 -132 c2 -72 7 -137 12 -143 6 -8 6 -13 -1 -13 -6
0 -20 14 -33 31 -28 39 -46 26 -30 -23 6 -18 15 -64 21 -102 10 -71 3 -96 -26
-96 -22 0 -27 -21 -8 -35 16 -11 16 -15 5 -29 -11 -13 -11 -24 -1 -64 16 -58
14 -56 40 -40 18 11 23 11 35 -5 7 -10 10 -27 7 -39 -4 -17 -2 -19 17 -13 11
3 21 2 21 -3 0 -15 -28 -34 -39 -28 -6 4 -18 -6 -28 -21 -10 -15 -21 -31 -26
-34 -15 -11 -13 -71 2 -77 10 -3 12 4 9 32 -5 46 19 50 35 6 12 -32 26 -37 58
-20 11 6 24 8 29 5 15 -9 -8 -45 -29 -45 -10 0 -23 -12 -29 -26 -12 -25 -32
-25 -32 2 0 8 -10 14 -25 14 -28 0 -29 -2 -16 -28 5 -9 17 -47 26 -84 9 -37
23 -74 29 -84 16 -21 36 -10 36 20 0 12 4 26 10 32 11 11 2 54 -12 54 -5 0
-12 -9 -15 -20 -7 -28 -23 -25 -23 4 0 24 26 54 37 43 3 -4 12 -2 20 5 19 16
34 -1 37 -43 2 -19 4 -42 5 -52 0 -10 6 -15 11 -12 6 3 10 0 10 -8 0 -10 7
-13 20 -10 14 4 20 0 20 -11 0 -10 5 -14 10 -11 6 3 10 19 10 34 0 31 40 75
47 54 8 -24 25 -13 19 11 -5 20 -2 24 19 24 27 0 33 -24 15 -59 -9 -15 -15
-17 -31 -9 -15 9 -21 7 -25 -5 -4 -9 -2 -21 5 -28 17 -17 14 -40 -6 -33 -11 5
-24 -2 -39 -21 -19 -24 -24 -26 -38 -14 -14 12 -19 11 -34 -2 -9 -8 -26 -17
-36 -18 -29 -6 -19 -24 12 -22 36 3 63 -23 56 -54 -7 -26 10 -53 34 -53 8 0
34 -10 58 -22 52 -25 70 -17 31 15 -16 13 -30 38 -35 62 -7 35 -11 40 -35 38
-17 -1 -27 3 -27 12 0 10 12 12 54 8 53 -6 54 -5 78 31 23 36 48 48 48 22 0
-7 -6 -19 -14 -26 -8 -6 -12 -18 -9 -26 4 -10 -3 -14 -25 -14 -47 0 -57 -21
-30 -63 26 -40 32 -42 71 -24 21 9 28 21 33 56 7 43 0 155 -12 199 -4 13 -2
22 5 22 6 0 10 -4 9 -9 -2 -5 2 -9 7 -10 6 -1 10 11 10 27 0 16 -5 26 -12 24
-16 -3 -17 25 -2 30 7 2 11 27 11 58 0 30 3 60 7 65 3 6 7 28 7 50 1 22 5 84
9 137 12 159 -4 196 -65 148 l-25 -20 23 0 c12 0 22 -3 22 -6 0 -11 -34 -33
-51 -34 -24 0 -31 28 -11 39 14 9 12 10 -12 11 -16 0 -34 -7 -40 -15 -10 -12
-14 -12 -30 0 -17 13 -17 15 -3 21 10 3 17 14 17 24 0 28 20 35 27 10 5 -19
10 -21 47 -15 22 4 57 17 77 30 l36 23 7 123 c7 118 6 124 -13 140 -26 21 -26
29 -1 29 24 0 27 13 35 165 5 108 19 175 36 175 4 0 17 -8 30 -19 21 -17 22
-22 11 -45 -17 -37 -15 -81 3 -96 14 -12 14 -15 -1 -31 -14 -16 -15 -25 -5
-64 6 -25 9 -56 5 -70 -3 -14 -3 -33 1 -42 4 -10 7 -52 6 -95 -2 -57 2 -83 14
-101 12 -18 13 -27 4 -32 -11 -7 -10 -36 8 -285 3 -36 4 -89 4 -119 -1 -29 4
-60 10 -68 9 -10 9 -17 1 -25 -35 -35 21 -53 76 -25 15 8 44 22 66 33 38 18
38 19 34 66 -3 26 -4 48 -3 48 2 0 14 -6 28 -13 24 -12 25 -15 10 -30 -9 -8
-13 -23 -10 -31 8 -19 45 -13 92 16 17 10 42 18 58 18 20 0 30 7 36 24 12 30
91 94 91 73 0 -9 -6 -17 -12 -20 -10 -3 -8 -9 5 -24 9 -11 15 -27 12 -35 -3
-8 1 -21 10 -28 8 -7 15 -19 15 -27 0 -7 8 -16 18 -20 34 -12 43 -24 30 -40
-7 -9 -12 -25 -13 -36 0 -17 -7 -22 -30 -24 -38 -3 -64 -37 -66 -88 -2 -56 -2
-55 -27 -102 -12 -23 -21 -52 -19 -65 1 -17 -7 -26 -34 -39 -19 -10 -41 -24
-48 -33 -8 -9 -17 -16 -22 -16 -4 0 -31 -13 -59 -30 -28 -16 -56 -30 -62 -30
-6 0 -20 -7 -29 -16 -17 -15 -22 -15 -66 -1 -45 15 -63 15 -63 -2 0 -13 49
-31 86 -31 27 0 36 -5 44 -24 7 -18 14 -23 30 -19 11 3 23 9 26 14 3 5 14 9
26 9 24 0 94 58 119 100 10 16 26 30 34 30 9 0 19 10 24 23 35 85 35 86 48 75
17 -14 16 -28 -4 -50 -19 -22 -12 -32 16 -23 13 4 21 15 21 28 0 11 11 33 25
47 22 23 24 31 15 54 -13 35 -13 73 1 82 18 11 32 -12 20 -34 -8 -15 -6 -23 8
-36 9 -9 25 -16 34 -16 9 0 21 -8 26 -17 9 -15 12 -16 20 -4 6 9 19 12 39 8
27 -6 36 -1 70 38 22 25 48 45 58 45 11 0 41 27 69 59 37 45 53 57 62 49 7 -6
13 -17 13 -24 0 -17 0 -17 42 0 44 19 61 40 61 76 0 19 6 31 16 34 68 18 100
23 173 27 9 0 24 9 34 20 9 10 27 19 40 19 12 0 36 11 53 25 16 14 44 28 61
30 18 2 40 11 50 20 9 8 24 13 33 9 12 -4 20 1 26 17 5 13 7 27 4 32 -2 4 1 7
7 7 6 0 15 -11 20 -24 10 -28 46 -51 55 -36 11 17 74 42 91 36 10 -4 25 1 35
10 16 14 21 15 35 3 14 -11 16 -10 12 10 -3 20 2 24 32 27 19 1 50 -2 67 -9
25 -8 36 -8 45 1 12 12 8 15 -44 26 -15 3 -34 13 -42 22 -14 14 -14 18 2 42
14 21 18 23 20 9 2 -11 17 -19 44 -23 23 -4 42 -14 46 -23 7 -21 22 -31 49
-31 12 0 24 -6 27 -12 7 -19 35 19 29 41 -6 22 13 37 59 45 33 6 38 4 58 -29
13 -20 30 -35 41 -35 13 0 19 -7 19 -21 0 -12 8 -23 20 -26 12 -3 20 -14 20
-27 0 -11 7 -29 15 -40 12 -16 12 -21 -1 -41 -9 -14 -12 -33 -9 -48 4 -14 2
-28 -5 -32 -7 -4 -9 -18 -5 -37 5 -21 2 -35 -11 -49 -10 -11 -18 -32 -19 -47
0 -15 -5 -26 -11 -25 -6 1 -31 -16 -54 -37 -24 -22 -46 -38 -48 -35 -3 3 0 11
6 17 29 29 1 39 -30 11 -10 -9 -18 -25 -18 -36 0 -11 -7 -28 -16 -38 -15 -17
-14 -20 16 -46 18 -15 39 -32 46 -36 19 -11 18 -41 -1 -34 -8 4 -17 2 -21 -4
-3 -6 -12 -8 -20 -5 -15 6 -111 -82 -106 -97 1 -5 -2 -5 -8 -2 -6 4 -27 7 -46
7 -19 0 -34 4 -34 8 0 10 44 40 105 70 28 14 51 33 53 43 3 16 0 18 -20 12
-22 -7 -22 -7 -5 12 9 11 17 25 17 31 0 21 -29 13 -41 -10 -15 -31 -119 -128
-136 -128 -15 0 -18 -26 -3 -35 17 -10 11 -25 -7 -18 -13 5 -15 2 -10 -12 9
-22 -9 -45 -35 -45 -19 0 -168 -115 -168 -129 0 -13 -136 -119 -185 -145 -34
-17 -57 -38 -70 -63 -23 -45 -43 -61 -107 -88 -27 -12 -74 -47 -110 -83 -58
-59 -61 -64 -45 -80 22 -21 53 -5 50 26 -3 23 21 47 39 39 7 -2 13 -19 13 -38
0 -27 -5 -34 -24 -39 -41 -9 -35 -28 16 -51 26 -12 63 -35 82 -51 25 -22 36
-27 45 -18 8 9 1 20 -29 46 -22 18 -47 34 -56 34 -16 0 -29 19 -29 41 0 23 53
-7 111 -63 15 -16 35 -28 44 -28 9 0 29 -9 44 -21 24 -17 32 -19 48 -8 17 10
25 8 50 -11 19 -13 49 -23 76 -25 24 -2 59 -11 77 -20 22 -11 59 -18 107 -18
40 -1 73 -5 73 -9 0 -5 8 -8 19 -8 10 0 24 -7 31 -15 16 -19 44 -19 59 -1 9
11 8 15 -4 20 -20 7 -10 26 14 26 10 0 21 -9 24 -20 3 -10 27 -32 53 -49 27
-16 61 -39 76 -50 14 -12 38 -21 52 -21 32 0 35 -27 4 -32 -37 -5 -29 -39 15
-68 l39 -24 -23 -18 c-12 -10 -20 -20 -18 -21 27 -19 61 -37 71 -37 7 -1 24
-10 37 -20 18 -15 21 -23 12 -33 -11 -14 -5 -27 12 -27 5 0 7 7 3 15 -10 28
16 15 60 -30 24 -25 48 -45 53 -45 18 0 110 -112 104 -127 -4 -9 2 -16 16 -20
25 -6 26 -11 5 -35 -12 -12 -14 -21 -7 -30 15 -18 25 -68 15 -68 -11 0 -84 57
-94 73 -4 7 -5 20 -2 29 8 26 -5 42 -21 28 -9 -7 -12 -22 -9 -39 4 -18 -1 -35
-16 -54 -25 -32 -46 -37 -30 -7 6 11 8 37 4 59 -6 34 -3 43 20 64 l26 25 -33
20 c-19 10 -50 25 -71 32 -25 8 -41 21 -47 38 l-11 27 -25 -30 c-21 -24 -25
-26 -19 -8 8 27 -9 63 -29 63 -9 0 -24 5 -34 12 -15 9 -26 8 -54 -5 -54 -26
-101 -74 -92 -95 5 -9 11 -61 14 -115 4 -53 12 -102 19 -109 16 -16 15 -29 -2
-22 -21 8 -39 59 -31 92 5 23 -1 45 -24 89 -16 33 -36 65 -44 72 -22 18 -79
32 -91 22 -7 -5 -34 2 -69 20 -49 23 -62 26 -83 17 -18 -8 -38 -8 -77 2 -47
11 -57 10 -79 -4 -23 -15 -28 -15 -54 -1 -16 8 -39 15 -50 15 -12 0 -38 7 -59
16 -25 10 -50 13 -76 9 -31 -5 -39 -4 -39 9 0 18 -30 36 -59 36 -12 0 -29 4
-39 9 -21 12 -105 37 -152 46 -19 3 -44 10 -55 14 -36 16 -139 42 -170 44 -29
2 -30 2 -31 -53 -1 -63 26 -134 58 -151 11 -6 37 -9 57 -7 20 3 62 -1 95 -9
58 -13 59 -13 107 17 38 23 61 30 99 30 28 0 50 -3 50 -7 0 -11 -58 -43 -76
-43 -8 0 -44 -13 -81 -30 -78 -36 -78 -36 -105 -10 -19 18 -31 19 -132 13 -92
-5 -115 -10 -144 -30 -19 -12 -40 -23 -47 -23 -6 0 -20 -9 -29 -19 -19 -21
-21 -18 152 -224 43 -52 50 -71 32 -82 -6 -4 -8 -15 -5 -26 5 -14 2 -19 -13
-19 -15 0 -19 5 -15 18 4 18 -10 35 -47 57 -10 5 -57 43 -104 83 -57 48 -92
72 -103 68 -8 -4 -13 -13 -9 -21 7 -20 -20 -31 -39 -15 -7 6 -24 10 -37 8 -21
-3 -23 -7 -20 -58 3 -59 38 -133 68 -144 12 -5 14 -9 5 -20 -13 -15 0 -28 61
-65 21 -12 47 -34 57 -47 37 -47 92 -84 116 -78 32 8 105 -14 105 -31 0 -8 12
-22 28 -32 15 -9 29 -18 31 -20 2 -1 -2 -9 -9 -18 -14 -17 -65 -20 -75 -5 -3
5 -14 10 -24 10 -10 0 -26 9 -36 20 -10 11 -27 22 -39 26 -11 4 -54 37 -93 75
-40 38 -85 71 -100 74 -41 9 -58 20 -61 41 -6 30 -41 61 -75 68 -85 17 -93 16
-125 -17 -16 -18 -32 -41 -34 -52 -2 -11 -8 20 -12 68 -7 74 -5 91 8 106 30
33 16 141 -18 141 -20 0 -47 35 -41 52 4 9 24 18 45 22 21 3 42 10 45 16 6 9
-1 41 -27 132 -9 31 -8 41 5 56 15 16 14 24 -9 97 -14 44 -27 103 -29 132 -4
58 -9 54 90 73 33 7 65 16 70 20 6 5 27 11 48 15 26 5 37 12 37 25 0 14 9 17
53 17 57 -1 134 30 129 52 -4 20 15 38 48 45 17 3 30 12 30 19 0 10 17 16 54
20 29 3 62 10 72 15 11 5 32 15 47 21 20 8 27 16 23 29 -8 24 2 35 58 62 27
13 51 31 53 41 3 10 20 21 41 26 27 6 38 15 42 33 6 26 82 72 145 88 20 6 30
15 30 28 0 13 9 20 30 24 26 4 30 10 33 43 2 20 9 37 15 37 18 0 169 79 193
102 12 11 22 29 23 41 0 12 2 76 4 141 3 123 10 143 42 116 12 -10 18 -10 31
0 13 12 11 15 -15 26 -17 7 -31 17 -31 23 0 15 41 24 53 12 7 -7 22 -1 50 21
21 17 53 41 71 53 l32 22 11 -23 c9 -20 8 -24 -16 -29 -37 -8 -101 -62 -101
-85 0 -9 -7 -23 -15 -30 -8 -7 -15 -20 -15 -30 0 -10 -7 -23 -15 -30 -8 -7
-15 -20 -15 -29 0 -9 -7 -25 -15 -35 -15 -20 -20 -58 -9 -69 8 -8 65 28 119
75 40 35 46 45 41 69 -5 24 1 33 40 66 25 20 50 47 54 59 6 15 15 21 27 18 10
-2 29 4 42 15 l24 18 -23 23 c-30 30 -20 45 51 83 30 16 75 47 101 69 43 35
46 42 41 73 -5 29 -1 39 26 65 50 50 43 60 -42 60 -43 0 -78 5 -85 12 -9 9
-15 9 -24 0 -7 -7 -21 -12 -31 -12 -10 0 -31 -8 -45 -18 -57 -38 -152 -65
-152 -42 0 13 -46 13 -71 0 -10 -6 -19 -16 -19 -23 0 -14 -53 -57 -70 -57 -17
0 -11 19 10 30 29 16 25 33 -6 26 -61 -16 -107 -75 -50 -64 15 3 27 0 30 -8 9
-24 47 -15 76 16 15 17 35 30 44 30 20 0 20 -4 0 -46 -9 -19 -14 -37 -11 -41
9 -9 75 44 81 65 5 15 27 28 98 60 5 2 8 -1 8 -7 0 -5 -20 -22 -45 -37 -25
-14 -50 -35 -56 -45 -5 -10 -16 -19 -24 -19 -15 0 -19 -12 -16 -39 2 -7 -4
-11 -11 -8 -7 2 -21 0 -31 -5 -15 -8 -16 -12 -6 -24 19 -23 -5 -43 -31 -26
-11 6 -27 12 -35 12 -24 0 -17 19 10 26 14 3 25 12 25 20 0 18 -10 18 -39 -3
-19 -13 -28 -14 -43 -4 -15 9 -20 8 -24 -4 -7 -18 -34 -20 -34 -2 0 7 9 18 21
25 16 11 18 16 9 28 -7 8 -20 14 -30 14 -9 0 -29 9 -44 21 -15 12 -34 19 -44
16 -9 -4 -55 -20 -102 -36 -47 -17 -95 -31 -106 -31 -12 0 -27 -7 -34 -15 -7
-8 -20 -15 -30 -15 -24 0 -127 -63 -163 -100 -25 -25 -37 -30 -78 -30 -35 0
-58 -7 -85 -25 -20 -14 -43 -25 -51 -25 -8 0 -24 -11 -37 -25 -21 -22 -24 -23
-50 -10 -33 17 -29 19 -127 -62 -42 -35 -81 -63 -87 -63 -17 0 -62 -41 -79
-73 -9 -18 -20 -50 -24 -72 l-6 -40 -2 42 c0 23 -5 44 -9 47 -19 12 -82 -16
-102 -45 -19 -26 -26 -29 -54 -23 -30 5 -39 0 -97 -56 -35 -35 -94 -87 -131
-117 -38 -31 -68 -61 -68 -68 0 -16 -28 -27 -43 -18 -7 4 -20 6 -29 5 -21 -4
-23 9 -6 26 10 10 6 18 -17 37 -17 13 -33 24 -37 25 -3 0 -11 -15 -18 -34 -7
-24 -18 -35 -35 -39 -31 -5 -31 -1 0 45 31 46 31 59 0 88 -19 18 -28 21 -37
12 -9 -9 -7 -16 7 -32 18 -20 18 -21 -2 -40 -20 -18 -22 -18 -37 -1 -9 10 -16
24 -16 31 0 8 -10 25 -22 38 -18 20 -19 24 -6 19 28 -10 29 7 2 46 -26 39 -34
43 -49 28 -6 -6 -29 -7 -52 -4 -42 6 -43 6 -43 44 0 39 -13 52 -24 24 -8 -22
-28 -18 -21 4 6 20 -32 73 -67 92 -16 9 -25 6 -44 -12 -13 -12 -24 -32 -25
-43 0 -21 0 -21 -14 -1 -40 57 -37 56 -79 44 l-40 -11 25 -19 c20 -16 22 -20
9 -29 -22 -14 -34 -12 -63 10 -30 24 -36 24 -64 5 -22 -15 -22 -16 -4 -48 23
-42 57 -48 71 -11 8 20 14 24 22 16 6 -6 17 -8 24 -5 10 3 14 -3 14 -20 0 -21
-6 -26 -27 -29 -23 -2 -27 -7 -25 -26 3 -20 1 -22 -16 -13 -10 5 -24 17 -32
25 -7 9 -19 16 -27 16 -13 0 -13 -4 2 -26 16 -25 16 -27 -4 -48 -12 -12 -21
-26 -21 -32 0 -5 21 -18 48 -28 26 -10 63 -31 82 -45 19 -14 46 -32 59 -39 33
-17 49 -1 33 33 -16 35 -5 51 19 29 18 -16 19 -16 19 4 0 25 16 37 33 24 7 -5
38 -17 69 -26 54 -15 77 -31 64 -43 -3 -3 -31 5 -62 17 -75 31 -108 21 -109
-33 -2 -36 0 -38 62 -71 l63 -34 25 20 c24 18 25 19 27 1 0 -10 1 -26 0 -35
-2 -18 44 -48 73 -48 8 0 15 -4 15 -9 0 -5 21 -19 48 -32 26 -13 73 -38 104
-56 31 -18 65 -33 75 -33 10 0 24 -9 31 -20 13 -21 51 -26 80 -11 9 6 37 17
62 26 25 9 64 33 87 54 23 22 64 46 91 55 34 12 52 24 55 38 5 18 9 19 21 9
12 -10 25 -7 68 17 29 16 88 48 131 71 64 35 77 47 77 67 0 23 3 24 34 19 24
-5 36 -3 42 8 5 7 25 17 44 21 19 3 51 19 71 35 20 16 51 37 70 46 42 20 89
46 123 68 14 10 34 17 44 17 32 0 71 37 65 61 -5 19 -3 20 31 13 29 -5 44 -2
64 13 85 62 182 94 182 60 0 -21 -31 -45 -99 -78 -33 -16 -62 -33 -65 -37 -7
-12 6 -26 37 -39 17 -8 27 -20 27 -33 0 -13 10 -24 25 -30 15 -6 25 -17 25
-29 0 -11 5 -23 10 -26 6 -3 10 -13 10 -22 0 -14 -4 -13 -23 5 -20 19 -27 20
-61 11 -45 -12 -60 -3 -28 18 25 17 30 53 7 53 -8 0 -15 -5 -15 -10 0 -11 -50
-34 -57 -26 -3 3 10 18 28 34 40 36 36 66 -8 56 -16 -3 -33 -13 -40 -21 -13
-17 -82 -53 -100 -53 -7 0 -20 -11 -29 -24 -23 -36 -87 -83 -92 -68 -7 21 -22
13 -18 -10 2 -18 11 -24 42 -29 21 -3 30 -7 18 -8 -11 0 -24 -4 -27 -8 -4 -3
-33 -5 -65 -4 -53 2 -63 -1 -103 -31 -24 -19 -51 -37 -59 -41 -8 -4 -27 -15
-42 -25 -15 -9 -59 -37 -98 -61 -70 -44 -72 -45 -65 -79 l6 -34 -42 7 c-40 7
-42 6 -36 -17 6 -22 3 -23 -33 -23 -26 0 -49 -8 -67 -23 -15 -12 -38 -26 -50
-32 -12 -5 -27 -18 -33 -30 -6 -11 -20 -20 -31 -20 -22 0 -117 -62 -134 -88
-16 -23 -27 -176 -14 -189 8 -8 6 -18 -5 -35 -16 -25 -17 -134 -1 -171 5 -12
3 -17 -9 -17 -15 0 -16 -17 -15 -142 0 -79 -2 -167 -6 -195 -5 -37 -4 -57 5
-68 9 -11 10 -19 1 -28 -6 -8 -13 -61 -16 -118 -8 -143 -15 -209 -23 -209 -12
0 -63 116 -69 157 -10 66 -41 111 -58 84 -5 -9 -129 -41 -159 -41 -9 0 -16 4
-16 9 0 5 24 12 53 16 66 9 154 42 178 66 16 16 19 35 19 129 0 107 -1 111
-24 122 -14 6 -27 17 -30 25 -5 12 0 13 25 8 30 -7 32 -6 26 16 -4 13 -12 125
-18 249 -10 192 -15 228 -30 244 -15 16 -21 17 -33 6 -9 -7 -16 -23 -16 -35 0
-17 -11 -29 -43 -44 -24 -12 -46 -21 -49 -21 -12 0 -68 -59 -78 -81 -5 -13
-14 -31 -18 -39 -34 -60 -34 -61 -11 -86 26 -27 27 -55 10 -159 -16 -94 -8
-135 35 -176 19 -18 34 -39 34 -46 0 -20 -8 -16 -42 23 -30 33 -33 35 -45 18
-23 -31 -16 -73 13 -84 19 -8 24 -15 19 -28 -17 -42 -18 -93 -1 -111 15 -16
15 -19 1 -24 -20 -8 -19 -44 3 -56 14 -8 17 -25 17 -114 0 -86 3 -108 18 -124
9 -11 17 -35 17 -55 0 -43 19 -100 37 -111 7 -4 13 -19 13 -32 0 -55 32 -161
56 -186 16 -17 31 -51 41 -94 14 -63 28 -87 66 -110 23 -14 34 -65 14 -65 -18
0 -67 55 -67 76 0 8 -7 17 -15 20 -8 4 -15 14 -15 23 0 9 -7 25 -15 35 -8 11
-15 27 -15 37 0 9 -7 22 -15 29 -25 21 -44 67 -32 79 7 7 7 14 0 23 -6 7 -13
26 -17 42 -4 16 -18 43 -32 61 -13 17 -24 40 -24 51 0 10 -7 27 -15 37 -7 11
-11 25 -8 33 3 8 0 21 -7 29 -7 9 -9 26 -5 45 5 25 2 37 -15 55 -18 20 -20 26
-10 45 7 13 9 36 5 54 -3 17 -10 55 -15 85 -5 30 -16 61 -23 70 -8 9 -20 32
-27 52 -11 30 -10 40 4 68 17 32 17 33 -8 56 -14 13 -26 30 -26 38 0 8 -7 20
-15 27 -12 10 -17 6 -31 -24 -19 -38 -34 -39 -34 -2 0 13 -7 30 -16 37 -9 7
-20 23 -25 36 -7 20 -15 23 -62 23 -50 0 -58 -4 -140 -66 -47 -36 -99 -80
-115 -98 -37 -42 -77 -54 -92 -27 -5 11 -7 21 -2 23 12 5 162 175 162 183 0 4
23 32 50 62 28 30 50 60 50 66 0 6 7 19 16 29 14 15 15 20 4 33 -7 9 -20 13
-28 10 -16 -6 -127 43 -118 52 12 12 66 10 77 -3 6 -8 18 -14 25 -14 8 0 14
-4 14 -10 0 -11 59 -2 78 13 22 17 13 47 -34 117 -68 101 -74 105 -156 103
-41 -1 -79 -8 -92 -16 -12 -8 -45 -18 -74 -22 -28 -4 -54 -11 -57 -15 -3 -5
-23 -11 -46 -15 -22 -4 -61 -18 -86 -33 -30 -16 -64 -26 -99 -28 -29 -1 -63
-9 -76 -18 -12 -9 -34 -16 -49 -16 -27 0 -152 -35 -181 -51 -10 -5 -25 -9 -34
-9 -26 0 -10 -22 31 -44 36 -19 40 -19 67 -3 16 9 35 17 43 17 7 0 18 7 25 15
8 9 30 15 58 15 42 0 44 -1 26 -15 -10 -8 -27 -15 -37 -15 -19 0 -109 -40
-139 -62 -14 -10 -21 -8 -42 11 -23 22 -32 23 -137 22 -94 -2 -117 -5 -140
-21 -35 -26 -52 -26 -44 0 3 10 -1 33 -10 50 -20 39 -6 97 38 146 16 19 17 26
6 63 -9 31 -21 46 -46 57 -18 9 -41 13 -50 9 -17 -6 -17 -7 2 -21 20 -15 20
-15 1 -30 -11 -8 -41 -14 -66 -14 -42 0 -126 -23 -158 -44 -10 -6 -11 -11 -3
-19 32 -32 -4 -67 -84 -81 -21 -4 -55 -16 -75 -26 -34 -17 -35 -21 -32 -60 3
-30 1 -41 -7 -36 -6 4 -11 16 -11 26 0 25 -19 35 -27 15 -3 -9 -26 -25 -50
-36 -28 -12 -47 -28 -54 -45 -7 -21 -13 -24 -21 -16 -17 17 -29 15 -58 -8
l-25 -20 25 -20 25 -20 -48 -45 c-27 -25 -53 -42 -58 -39 -16 9 -10 40 11 59
12 10 18 25 16 32 -3 8 -1 24 6 36 6 12 14 29 18 37 7 14 44 40 85 59 11 5 44
34 74 65 32 32 67 58 84 62 17 3 32 14 35 26 3 14 11 18 25 14 15 -3 37 10 81
51 34 30 75 61 92 69 17 7 36 20 44 29 7 8 21 13 30 10 9 -3 23 1 30 10 14 17
67 45 86 45 7 0 18 9 24 20 6 11 20 20 30 20 11 0 20 3 20 8 0 17 53 63 67 58
8 -3 27 4 43 15 18 14 38 20 54 17 15 -3 31 0 37 8 6 8 19 14 28 14 9 0 22 5
29 12 8 8 15 8 26 -1 12 -10 17 -9 25 7 12 23 64 47 85 39 15 -6 66 41 66 62
0 7 5 9 11 6 17 -11 58 4 69 26 13 24 -2 49 -30 49 -10 0 -23 7 -30 15 -10 12
-8 16 14 25 30 11 34 40 8 63 -9 8 -41 18 -70 20 -53 4 -97 26 -57 28 45 3 50
5 50 19 0 9 -11 16 -25 18 -14 2 -39 10 -57 18 -17 8 -36 14 -42 14 -6 0 -11
9 -11 19 0 11 -4 23 -10 26 -5 3 -10 15 -10 25 0 11 -11 27 -24 36 -14 8 -26
21 -28 28 -4 15 -105 106 -117 106 -5 0 -18 15 -29 34 -14 24 -29 35 -49 38
-23 2 -29 8 -31 33 -6 46 -19 58 -134 117 -40 19 -53 44 -18 33 24 -7 26 7 5
25 -12 10 -18 10 -31 -1 -13 -10 -17 -10 -25 2 -13 20 -11 29 6 29 8 0 15 4
15 9 0 17 -20 23 -34 12 -18 -15 -37 8 -29 37 3 14 1 22 -7 22 -10 0 -10 3 0
15 10 12 10 18 0 30 -7 8 -19 15 -26 15 -17 0 -84 69 -84 86 0 19 -29 39 -41
27 -6 -6 -2 -16 11 -28 11 -10 20 -24 20 -31 0 -7 12 -20 28 -28 23 -13 24
-15 7 -16 -11 0 -30 6 -41 14 -19 13 -22 12 -38 -15 -9 -16 -21 -29 -25 -29
-11 0 -23 59 -15 72 10 16 6 169 -5 182 -7 8 -7 35 0 80 10 71 17 81 72 112
43 23 95 86 102 122 4 23 11 32 25 32 10 0 22 5 25 10 3 6 14 10 23 10 9 0 32
14 50 31 17 16 32 26 32 21 0 -5 -11 -19 -25 -32 -14 -13 -25 -30 -25 -37 0
-9 -8 -11 -24 -7 -20 5 -27 0 -40 -27 -13 -26 -14 -34 -4 -42 10 -7 10 -10 0
-14 -17 -7 -5 -23 17 -23 20 0 36 -48 21 -63 -9 -10 -50 9 -50 23 0 12 -30 14
-30 3 0 -5 -3 -18 -6 -30 -6 -21 -3 -23 30 -23 20 0 59 9 88 20 52 20 52 20
73 0 23 -22 42 -16 23 7 -17 21 0 28 22 8 13 -12 27 -15 44 -11 30 7 41 -7 25
-32 -16 -25 -5 -54 16 -46 10 4 15 16 13 33 -3 23 0 26 27 23 17 -2 42 -14 56
-28 19 -19 35 -24 62 -22 24 1 43 -4 56 -17 12 -10 21 -13 21 -7 0 16 29 15
64 -3 15 -8 53 -21 84 -29 38 -10 67 -26 93 -52 29 -29 43 -35 62 -30 17 4 29
0 41 -13 21 -23 64 -32 101 -23 22 6 31 18 43 55 8 26 18 47 23 47 17 0 67
-51 73 -75 4 -14 14 -25 23 -25 9 0 39 -17 67 -39 28 -21 70 -48 94 -60 23
-12 42 -28 42 -36 0 -8 9 -19 21 -25 17 -9 25 -8 40 6 17 15 24 16 39 6 27
-17 39 -15 34 6 -3 11 6 24 26 37 26 18 30 26 30 68 0 41 -6 56 -35 91 -39 48
-42 56 -19 56 10 0 14 6 10 15 -3 9 3 19 14 25 23 12 26 36 6 47 -18 10 -31
59 -18 67 6 3 8 15 5 27 -5 16 -2 20 13 17 24 -4 30 25 9 46 -9 9 -12 16 -6
16 6 0 11 5 11 10 0 6 -6 10 -12 10 -9 0 -12 17 -10 57 3 52 9 77 32 123 3 8
1 34 -7 59 -9 32 -10 48 -2 57 6 7 8 22 4 33 -3 11 -1 30 5 41 9 17 8 27 -5
46 -15 23 -15 28 -1 49 9 14 16 33 16 43 0 10 9 27 21 38 14 13 19 26 16 44
-4 17 3 36 19 57 28 37 30 52 9 79 -18 24 -19 88 -2 102 7 6 12 28 11 49 -1
26 6 48 23 69 12 17 23 36 23 42 0 7 6 12 13 12 18 0 13 55 -6 75 -22 21 -21
27 3 43 12 7 18 17 15 22 -3 5 0 20 7 32 19 35 36 146 24 158 -7 7 -7 16 1 29
6 10 10 39 8 65 l-3 47 24 -16 c13 -8 30 -15 39 -15 9 0 18 -12 22 -30 7 -37
17 -44 33 -25 10 12 9 16 -4 21 -23 9 -20 33 7 43 26 10 60 46 63 67 1 8 11
27 21 42 9 15 18 36 19 47 1 11 6 31 10 44 5 17 4 22 -4 17 -7 -4 -12 -2 -12
4 0 7 6 10 13 7 37 -14 88 34 111 106 4 13 12 16 25 12 13 -4 28 3 45 20 30
30 26 29 96 5z m-35 -140 c3 -5 -1 -10 -9 -10 -9 0 -16 5 -16 10 0 6 4 10 9
10 6 0 13 -4 16 -10z m-308 -6 c-3 -3 -12 -4 -19 -1 -8 3 -5 6 6 6 11 1 17 -2
13 -5z m-172 -133 c-3 -12 -10 -21 -15 -21 -14 0 -21 32 -9 47 16 19 33 1 24
-26z m375 -61 c0 -5 -4 -10 -10 -10 -5 0 -10 5 -10 10 0 6 5 10 10 10 6 0 10
-4 10 -10z m-220 -674 c0 -8 -6 -16 -13 -19 -19 -7 -41 8 -33 22 10 16 46 14
46 -3z m504 -102 c3 -8 10 -13 14 -10 5 3 7 -5 5 -17 -3 -13 6 -37 21 -60 14
-20 23 -37 21 -37 -12 0 -75 76 -75 91 0 9 -3 24 -6 33 -3 9 -2 16 4 16 5 0
13 -7 16 -16z m110 -190 c9 -23 7 -54 -3 -54 -11 0 -21 25 -21 51 0 23 15 25
24 3z m231 -101 c-2 -49 1 -61 26 -96 32 -44 37 -88 14 -107 -22 -19 -9 -126
22 -166 26 -36 29 -57 9 -74 -8 -6 -16 -21 -18 -32 -2 -12 -8 -23 -14 -25 -14
-5 -24 29 -24 80 0 23 -7 44 -19 56 -12 12 -15 23 -10 28 6 6 6 19 1 34 -5 13
-13 53 -17 89 -4 38 -16 76 -27 93 -19 27 -19 27 0 27 23 0 32 17 25 51 -4 21
21 99 31 99 3 0 3 -25 1 -57z m-650 -13 c3 -6 -1 -13 -10 -16 -12 -5 -14 -14
-9 -39 3 -19 1 -35 -5 -39 -6 -4 -11 -16 -11 -27 0 -10 -7 -19 -15 -19 -20 0
-19 26 0 34 12 4 14 10 5 25 -15 30 -12 69 8 80 22 13 29 13 37 1z m201 -28
c-9 -8 -26 10 -26 26 1 15 2 15 15 -2 8 -11 13 -21 11 -24z m383 24 c9 -11 8
-15 -5 -20 -16 -6 -33 8 -34 27 0 12 27 8 39 -7z m-62 -32 c33 -14 46 -44 18
-44 -9 0 -18 -7 -21 -15 -4 -8 -12 -15 -20 -15 -8 0 -14 7 -14 15 0 11 -11 15
-38 15 -43 0 -62 13 -55 40 8 31 60 33 130 4z m-666 -158 c-20 -24 -47 -1 -48
42 l-1 35 31 -31 c25 -26 28 -33 18 -46z m69 29 c0 -9 -9 -15 -25 -15 -24 0
-32 10 -18 23 12 13 43 7 43 -8z m330 -45 c0 -5 -5 -10 -11 -10 -5 0 -7 5 -4
10 3 6 8 10 11 10 2 0 4 -4 4 -10z m-567 -24 c4 -9 14 -12 26 -9 22 6 29 -11
10 -23 -14 -9 -59 16 -59 33 0 17 16 17 23 -1z m153 -3 c25 -33 16 -45 -16
-21 -16 12 -30 25 -30 30 0 15 33 8 46 -9z m-92 -144 c9 -48 7 -59 -10 -59
-10 0 -13 6 -10 18 3 9 2 23 -3 31 -10 15 -4 41 9 41 4 0 10 -14 14 -31z m-64
-24 c0 -7 -5 -17 -11 -21 -16 -9 -43 21 -36 41 5 13 11 14 27 5 11 -6 20 -17
20 -25z m-1563 -69 c11 -11 -19 -27 -40 -22 -10 2 -21 -2 -24 -10 -3 -8 -11
-14 -19 -14 -17 0 -18 17 -1 23 10 4 10 7 0 18 -7 7 -13 16 -13 19 0 9 88 -4
97 -14z m1520 8 c8 -21 -13 -42 -28 -27 -13 13 -5 43 11 43 6 0 13 -7 17 -16z
m161 -16 c-6 -18 -28 -21 -28 -4 0 9 7 16 16 16 9 0 14 -5 12 -12z m2212 -3
c0 -8 -5 -15 -10 -15 -6 0 -28 -12 -50 -26 -43 -29 -72 -24 -44 7 9 10 23 19
29 19 7 0 18 7 25 15 7 8 21 15 31 15 11 0 19 -7 19 -15z m-2230 -45 c0 -5 -4
-10 -10 -10 -5 0 -10 5 -10 10 0 6 5 10 10 10 6 0 10 -4 10 -10z m535 -25 c30
-30 46 -65 30 -65 -15 0 -55 34 -55 46 0 8 -4 14 -10 14 -5 0 -10 9 -10 20 0
27 5 26 45 -15z m-459 -40 c-5 -18 -2 -25 8 -25 23 0 18 -97 -5 -103 -23 -6
-32 18 -13 34 13 10 12 15 -6 34 -24 26 -24 29 -4 60 21 32 28 32 20 0z m-176
-26 c0 -15 -43 -69 -55 -69 -17 0 -34 21 -28 36 3 8 11 14 18 14 6 0 20 9 30
20 17 19 35 19 35 -1z m105 -50 c0 -13 -6 -24 -12 -24 -7 0 -13 3 -13 8 0 4 0
16 0 28 0 12 5 19 13 17 6 -3 12 -16 12 -29z m150 -19 c-5 -8 -11 -8 -17 -2
-6 6 -7 16 -3 22 5 8 11 8 17 2 6 -6 7 -16 3 -22z m2319 1 c17 -19 17 -20 -3
-30 -11 -6 -32 -11 -48 -11 -16 0 -39 -7 -51 -16 -42 -29 -44 -8 -3 34 45 46
78 53 105 23z m-2483 -131 l-9 -25 -10 26 c-6 15 -17 29 -24 31 -7 3 0 11 17
19 28 14 30 13 33 -6 2 -11 -1 -32 -7 -45z m179 46 c0 -22 -19 -30 -35 -16
-22 18 -18 30 10 30 15 0 25 -6 25 -14z m-105 -47 c11 -17 -1 -21 -15 -4 -8 9
-8 15 -2 15 6 0 14 -5 17 -11z m114 -136 c1 -7 -3 -13 -9 -13 -5 0 -10 17 -9
38 1 33 2 34 9 12 4 -14 8 -31 9 -37z m-59 -21 c0 -16 -28 -47 -36 -39 -4 4
-2 7 4 7 7 0 12 9 12 20 0 11 5 20 10 20 6 0 10 -4 10 -8z m773 -63 c-17 -17
-37 -1 -22 17 8 10 15 12 23 4 7 -7 7 -13 -1 -21z m981 -45 c8 -20 -8 -40 -46
-60 -16 -8 -28 -23 -28 -34 0 -11 -4 -20 -10 -20 -21 0 -9 43 20 68 17 15 30
34 30 44 0 22 26 24 34 2z m116 -84 c0 -5 -7 -10 -15 -10 -8 0 -15 5 -15 10 0
6 7 10 15 10 8 0 15 -4 15 -10z m-702 -53 c2 -11 -3 -17 -17 -17 -23 0 -35 15
-26 31 10 15 39 6 43 -14z m-640 -39 c-7 -20 -58 -23 -58 -4 0 11 10 16 31 16
20 0 29 -4 27 -12z m530 -10 c-6 -18 -28 -21 -28 -4 0 9 7 16 16 16 9 0 14 -5
12 -12z m160 -26 c2 -7 -3 -12 -12 -12 -9 0 -16 7 -16 16 0 17 22 14 28 -4z
m-1521 0 c7 -4 16 -23 19 -42 5 -24 4 -31 -4 -26 -7 4 -12 13 -12 21 0 7 -9
17 -20 20 -11 3 -20 13 -20 21 0 15 18 18 37 6z m1912 -37 c-24 -25 -59 -34
-59 -15 0 6 8 13 18 16 9 3 24 9 32 14 28 17 32 10 9 -15z m55 -50 c18 -14 38
-25 44 -25 7 0 12 -4 12 -9 0 -14 -59 -41 -76 -34 -13 5 -13 7 0 22 18 20 9
38 -23 42 -31 5 -40 29 -11 29 12 0 36 -11 54 -25z m-1930 -23 c2 -4 -1 -15
-8 -25 -21 -28 -97 -13 -80 15 3 4 13 4 24 -2 13 -7 21 -6 30 5 14 16 26 19
34 7z m-169 -22 c4 -6 18 -9 32 -8 39 4 39 -18 -1 -37 -40 -19 -119 -10 -124
15 -5 27 79 53 93 30z m355 -10 c0 -12 -28 -25 -36 -17 -9 9 6 27 22 27 8 0
14 -5 14 -10z m840 -30 c16 -16 38 -30 50 -30 22 0 26 -10 9 -27 -20 -20 -57
-2 -79 38 -31 60 -25 65 20 19z m-71 -43 c1 -5 -3 -5 -9 -2 -5 3 -10 16 -9 28
0 21 1 21 9 2 5 -11 9 -24 9 -28z m-814 10 c-4 -15 1 -32 16 -51 l22 -28 23
29 c19 24 23 26 29 11 11 -28 -31 -78 -66 -78 -30 0 -36 9 -19 26 7 7 4 19
-10 36 -29 38 -26 67 8 77 1 1 0 -9 -3 -22z m1706 -60 c-1 -12 -15 -9 -19 4
-3 6 1 10 8 8 6 -3 11 -8 11 -12z m-1731 -44 c0 -16 -43 -27 -75 -19 -36 9
-31 26 9 26 23 0 36 6 40 17 6 15 8 15 16 3 6 -8 10 -21 10 -27z m1628 -20 c5
-17 -26 -29 -40 -15 -6 6 -7 15 -3 22 9 14 37 9 43 -7z m-1556 -65 c-9 -9 -12
-4 -11 23 0 32 1 33 11 11 8 -17 8 -26 0 -34z m443 -38 c3 -5 -3 -10 -14 -10
-11 0 -23 5 -26 10 -3 6 3 10 14 10 11 0 23 -4 26 -10z m-1612 -99 c5 -1 6 -5
3 -10 -3 -5 -20 -7 -38 -6 -41 3 -40 3 -33 14 3 5 18 8 33 6 15 -2 31 -4 35
-4z m1571 3 c9 -3 16 -10 16 -14 0 -13 -49 -18 -60 -5 -17 21 9 32 44 19z
m451 -124 c11 -17 -5 -32 -21 -19 -8 6 -14 15 -14 20 0 12 27 11 35 -1z m5
-80 c0 -11 -4 -20 -10 -20 -5 0 -10 9 -10 20 0 11 5 20 10 20 6 0 10 -9 10
-20z m-360 -32 c0 -16 -3 -19 -11 -11 -6 6 -8 16 -5 22 11 17 16 13 16 -11z
m2180 -268 c0 -5 -4 -10 -10 -10 -5 0 -10 5 -10 10 0 6 5 10 10 10 6 0 10 -4
10 -10z m134 -48 c-17 -26 -46 -21 -55 10 -6 23 -4 27 15 30 30 6 54 -18 40
-40z m-2319 -34 c9 -24 26 -53 38 -65 11 -13 18 -26 14 -29 -9 -9 -66 58 -73
86 -4 14 -11 31 -17 38 -7 8 -5 12 6 12 8 0 22 -19 32 -42z m99 -154 c3 -9 6
-25 6 -37 0 -27 -15 -11 -24 26 -7 29 8 38 18 11z m1301 -50 c14 -9 25 -25 25
-35 0 -25 -17 -24 -32 1 -7 11 -18 20 -25 20 -14 0 -17 13 -6 23 9 10 10 9 38
-9z m-148 -90 c-4 -52 -9 -69 -26 -80 -31 -22 -26 -33 26 -55 l47 -20 21 27
c21 26 22 26 52 10 36 -18 46 -10 37 31 -4 20 1 16 18 -17 19 -36 31 -48 65
-58 29 -9 40 -18 36 -28 -7 -18 -21 -18 -56 1 -16 8 -49 15 -75 15 -26 0 -55
0 -66 0 -10 1 -27 -6 -37 -16 -11 -10 -28 -15 -43 -12 -21 4 -25 0 -30 -31 -3
-20 -6 -50 -6 -66 0 -17 -7 -41 -16 -54 -19 -26 -12 -47 33 -113 19 -28 24
-44 19 -64 -6 -23 0 -34 41 -76 l47 -48 -81 0 c-45 0 -85 -4 -88 -10 -12 -19
-21 -10 -33 35 -16 59 -15 75 2 75 8 0 18 5 21 10 9 15 -53 118 -73 122 -13 2
-16 12 -14 43 3 35 -4 48 -52 109 -40 49 -54 75 -50 90 3 16 -11 38 -56 88
-89 98 -80 132 20 74 70 -41 105 -52 114 -37 11 17 41 13 69 -9 34 -27 57 -25
94 9 29 26 31 32 23 67 -9 40 -6 54 12 54 7 0 9 -22 5 -66z m899 39 c-3 -16
-8 -45 -12 -65 -6 -39 -24 -43 -24 -6 0 31 22 98 32 98 5 0 7 -12 4 -27z
m-4568 -30 c2 -7 -8 -17 -23 -23 -18 -7 -25 -15 -21 -25 3 -9 0 -15 -8 -15 -7
0 -19 -7 -26 -15 -9 -11 -16 -13 -24 -5 -5 5 -27 10 -47 10 -43 0 -68 22 -50
44 18 22 70 28 103 12 36 -19 61 -11 52 16 -5 16 -2 19 17 16 12 -2 24 -9 27
-15z m2097 7 c3 -6 -1 -13 -9 -16 -10 -4 -16 -19 -16 -40 0 -35 -13 -46 -24
-18 -10 27 -7 52 10 68 18 18 30 20 39 6z m-1915 -25 c-7 -9 -15 -13 -18 -10
-3 2 1 11 8 20 7 9 15 13 18 10 3 -2 -1 -11 -8 -20z m959 -27 c-5 -10 -15 -16
-21 -12 -5 4 -35 -19 -64 -50 -46 -48 -53 -60 -44 -76 12 -22 3 -47 -25 -70
-10 -8 -33 -39 -52 -68 -32 -51 -34 -59 -27 -106 4 -28 8 -62 10 -75 1 -12 12
-34 24 -46 l22 -24 -28 3 c-27 3 -29 6 -34 56 -3 30 -10 55 -17 57 -6 2 -21
-14 -34 -36 -27 -48 -55 -56 -44 -13 3 15 18 42 32 61 22 28 24 37 14 53 -6
10 -8 24 -4 31 4 7 8 17 9 22 3 16 23 59 36 77 10 14 10 22 0 38 -15 25 -8 40
19 40 10 0 19 7 19 15 0 14 -56 21 -127 15 -37 -3 -27 13 35 53 35 23 69 37
89 37 17 0 35 4 38 10 3 5 19 7 36 3 19 -4 35 0 47 9 9 9 31 23 47 31 27 14
31 14 42 0 9 -11 9 -21 2 -35z m-993 -61 c-1 -29 2 -57 7 -64 13 -18 -1 -33
-29 -33 -25 0 -32 18 -13 37 20 20 2 45 -28 41 -25 -3 -28 -7 -28 -38 0 -28
-4 -35 -20 -35 -17 0 -20 6 -17 35 2 25 -3 44 -18 63 -12 15 -17 27 -11 27 5
0 13 -4 16 -10 11 -17 51 -11 86 13 47 32 57 26 55 -36z m4472 -26 c19 -17 39
-28 47 -25 23 9 18 -10 -10 -40 -21 -23 -30 -26 -60 -20 -22 4 -41 2 -50 -6
-10 -8 -37 -10 -87 -5 -40 3 -107 7 -148 9 -65 2 -75 5 -75 21 0 36 28 40 106
15 50 -16 74 -20 77 -12 2 8 11 8 29 1 24 -9 78 -6 141 7 21 4 31 28 15 36 -5
2 -19 18 -31 36 -20 28 -21 32 -5 24 10 -6 33 -24 51 -41z m-3950 -8 c-3 -12
-12 -17 -27 -15 -13 1 -30 -3 -38 -9 -10 -9 -17 -9 -25 -1 -9 9 -8 12 4 12 8
0 21 7 28 15 18 22 62 20 58 -2z m-1025 -34 c21 -5 37 -16 37 -24 0 -9 10 -15
26 -15 16 0 24 -5 22 -12 -3 -8 -23 -13 -53 -13 -39 -1 -55 5 -86 30 -21 16
-38 33 -38 38 -1 10 48 9 92 -4z m4429 -7 c70 -27 69 -32 -10 -32 -71 0 -89 8
-78 35 7 20 31 19 88 -3z m763 -7 c-16 -13 -35 -24 -42 -25 -7 0 -16 -7 -21
-16 -10 -18 -32 -11 -32 9 0 7 7 23 16 35 12 17 25 22 62 22 l47 0 -30 -25z
m-4946 -26 c-25 -19 -75 -24 -119 -12 -20 5 -10 10 50 23 84 19 104 16 69 -11z
m2461 11 c0 -5 -5 -10 -11 -10 -5 0 -7 5 -4 10 3 6 8 10 11 10 2 0 4 -4 4 -10z
m2361 -15 c-1 -15 -24 -12 -29 3 -3 9 2 13 12 10 10 -1 17 -7 17 -13z m-2171
-269 c0 -22 -17 -46 -32 -46 -10 0 -11 74 -1 83 11 11 33 -14 33 -37z m-1193
-52 c-3 -3 -12 -4 -19 -1 -8 3 -5 6 6 6 11 1 17 -2 13 -5z m1093 -37 c8 -14
11 -29 7 -33 -11 -11 -61 42 -52 55 10 17 28 8 45 -22z m-1590 -2 c10 -12 9
-22 -3 -52 -8 -20 -18 -38 -23 -40 -12 -4 -44 53 -44 77 0 30 49 41 70 15z
m1670 -6 c0 -11 -4 -17 -10 -14 -5 3 -10 13 -10 21 0 8 5 14 10 14 6 0 10 -9
10 -21z m-1509 -5 c12 -14 11 -16 -5 -13 -11 2 -21 10 -24 17 -5 17 13 15 29
-4z m-56 -45 c27 -37 33 -40 64 -34 19 4 52 15 73 26 20 10 52 19 70 19 30 0
31 -1 13 -14 -11 -7 -36 -17 -55 -21 -19 -4 -49 -18 -67 -31 -35 -27 -53 -30
-71 -12 -9 9 -15 8 -24 -4 -19 -23 -72 -32 -87 -14 -9 11 -7 21 14 51 14 21
25 46 25 56 0 29 12 23 45 -22z m2354 2 c6 -10 33 -33 61 -51 l51 -33 22 21
c18 17 29 20 52 14 39 -11 42 -29 7 -37 -17 -3 -38 -15 -48 -26 -23 -25 -36
-24 -64 6 -13 14 -28 25 -33 25 -5 0 -26 14 -47 30 -21 17 -43 30 -49 30 -18
0 -13 28 7 33 29 8 31 7 41 -12z m-801 -32 c2 -14 -4 -31 -12 -39 -9 -7 -16
-26 -16 -42 0 -26 -3 -29 -23 -24 -14 3 -35 -2 -53 -13 -17 -10 -46 -22 -65
-26 -19 -4 -64 -21 -101 -37 -61 -28 -66 -33 -71 -67 -3 -25 1 -42 13 -56 18
-21 34 -61 44 -107 8 -37 62 -75 87 -60 16 10 17 8 12 -26 -6 -41 -33 -81 -33
-49 0 11 -14 24 -34 32 -31 13 -86 88 -86 118 0 24 -44 99 -62 106 -21 8 -19
10 63 97 23 25 29 40 29 78 0 25 5 46 10 46 6 0 10 -18 10 -39 0 -22 4 -43 10
-46 5 -3 47 10 92 30 45 19 86 35 91 35 19 0 45 41 51 81 5 31 10 40 24 37 10
-2 18 -14 20 -29z m-58 -208 c-14 -27 -13 -64 3 -80 10 -10 8 -15 -8 -27 -38
-29 -55 -36 -55 -22 0 26 29 119 40 134 18 21 32 17 20 -5z m-187 -432 c-25
-26 -38 -11 -16 20 11 16 18 20 26 12 8 -8 5 -17 -10 -32z"></path>
<path d="M3586 5762 c-3 -6 1 -15 8 -21 8 -7 17 -8 20 -3 3 6 -1 15 -8 21 -8
7 -17 8 -20 3z"></path>
<path d="M3087 5393 c-4 -18 -1 -32 9 -39 10 -8 12 -21 8 -43 -8 -38 7 -41 30
-6 21 32 20 52 -4 65 -11 6 -20 20 -20 30 0 30 -17 24 -23 -7z"></path>
<path d="M3070 5196 c0 -9 7 -16 16 -16 17 0 14 22 -4 28 -7 2 -12 -3 -12 -12z"></path>
<path d="M3027 5113 c-10 -9 -9 -23 2 -23 5 0 11 7 15 15 5 15 -5 20 -17 8z"></path>
<path d="M3490 4498 c0 -35 -4 -80 -9 -100 -9 -39 -4 -47 17 -26 15 15 17 188
2 188 -6 0 -10 -28 -10 -62z"></path>
<path d="M5723 3897 c-13 -7 -23 -15 -23 -19 0 -12 38 -10 45 2 4 6 13 9 20 8
8 -2 15 2 17 7 4 14 -33 15 -59 2z"></path>
<path d="M5144 3796 c-4 -10 -2 -22 4 -28 8 -8 13 -7 18 6 4 10 2 22 -4 28 -8
8 -13 7 -18 -6z"></path>
<path d="M3465 3779 c-6 -19 0 -38 9 -28 10 12 16 49 7 49 -5 0 -13 -9 -16
-21z"></path>
<path d="M1197 3773 c-4 -3 -2 -12 4 -20 13 -15 65 -18 74 -4 11 20 -61 42
-78 24z"></path>
<path d="M1347 3773 c-30 -8 -13 -28 24 -28 24 0 34 5 34 15 0 16 -27 22 -58
13z"></path>
<path d="M3495 3740 c-4 -6 -11 -8 -16 -5 -13 8 -24 -24 -12 -36 11 -11 53 17
53 37 0 16 -16 19 -25 4z"></path>
<path d="M1456 3732 c-8 -13 33 -74 44 -67 6 3 16 3 23 -2 6 -4 27 -9 46 -10
18 -1 41 -9 50 -18 10 -8 23 -15 29 -15 7 0 20 -4 30 -9 9 -5 37 -18 62 -30
27 -12 37 -21 25 -21 -11 1 -29 7 -39 15 -11 8 -27 15 -36 15 -8 0 -32 9 -53
20 -20 11 -55 20 -76 20 -33 0 -41 -4 -46 -22 -3 -13 -11 -33 -17 -45 -8 -17
-7 -39 6 -89 14 -60 14 -69 1 -84 -8 -9 -15 -26 -15 -37 0 -23 53 -75 113
-112 32 -19 37 -28 33 -47 -4 -13 -1 -28 6 -34 79 -65 128 -100 140 -100 8 0
27 -9 42 -21 19 -15 25 -26 20 -43 -4 -18 3 -28 35 -49 22 -15 43 -27 46 -27
4 0 24 -15 46 -32 l40 -33 20 25 c10 14 19 30 19 36 0 7 7 14 15 18 22 8 18
44 -6 57 -19 10 -20 12 -6 27 13 13 19 13 31 2 9 -7 16 -18 16 -26 0 -7 12
-19 28 -26 18 -9 28 -22 30 -41 l3 -28 -31 16 c-30 15 -33 15 -51 -1 -23 -20
-25 -67 -4 -84 8 -7 15 -23 15 -37 0 -18 9 -28 38 -39 20 -9 55 -24 78 -35 22
-10 49 -19 60 -19 29 0 52 -44 34 -65 -17 -20 -7 -29 55 -50 28 -9 74 -32 103
-51 42 -28 52 -39 47 -54 -5 -16 4 -24 51 -45 32 -14 90 -35 128 -47 81 -24
96 -33 96 -59 0 -21 7 -25 130 -67 178 -60 220 -72 248 -72 41 0 56 -20 41
-54 -7 -14 -9 -29 -6 -33 8 -7 47 26 47 39 0 15 43 47 62 48 42 0 29 87 -24
162 -35 48 -136 136 -225 196 -48 31 -57 34 -102 28 -50 -7 -81 -1 -81 15 0 5
25 9 56 9 68 0 69 18 3 34 -33 8 -44 16 -44 30 0 10 -14 28 -31 40 -210 142
-201 137 -243 130 -39 -6 -40 -6 -43 26 -4 46 -30 60 -68 38 -28 -16 -29 -16
-35 3 -4 10 -4 27 -1 37 4 13 -5 23 -37 41 -36 20 -47 22 -65 12 -29 -15 -40
-8 -35 23 4 20 -3 29 -37 52 -22 15 -51 28 -63 29 -14 1 -23 9 -25 23 -2 14
-13 24 -30 29 -42 10 -61 53 -23 53 10 0 24 7 31 15 16 19 30 10 30 -21 0 -16
6 -24 18 -24 10 0 25 -9 35 -20 9 -11 22 -20 28 -20 6 0 13 9 16 20 9 32 23
23 23 -15 0 -48 25 -57 54 -20 12 15 29 26 36 23 17 -5 53 60 45 81 -4 11 -10
10 -28 -8 -28 -25 -43 -27 -51 -5 -10 26 -7 34 12 34 10 0 27 7 38 15 10 8 26
15 35 15 23 0 71 54 64 73 -4 10 1 20 15 27 28 15 13 33 -45 56 -47 18 -65 13
-65 -17 0 -24 -16 -25 -22 -1 -3 10 -50 48 -104 84 -128 84 -119 80 -148 67
-21 -10 -34 -9 -68 6 -24 10 -52 26 -63 35 -31 26 -95 60 -111 60 -8 0 -17 -7
-20 -15 -8 -21 -18 -19 -64 10 -22 14 -51 25 -64 25 -14 0 -44 9 -66 21 -41
22 -99 20 -127 -2 -8 -7 -28 -2 -62 15 -56 29 -58 29 -65 18z m423 -183 c27
-9 31 -16 31 -45 0 -19 -2 -34 -4 -34 -22 0 -56 23 -62 42 -4 13 -14 28 -23
35 -14 11 -14 12 5 13 12 0 35 -5 53 -11z m379 -65 c-10 -10 -28 6 -28 24 0
15 1 15 17 -1 9 -9 14 -19 11 -23z m-342 -70 c-3 -9 -6 -18 -6 -20 0 -3 -4 -3
-10 1 -11 7 -2 35 12 35 6 0 7 -7 4 -16z m315 -19 c-1 -15 -24 -12 -29 3 -3 9
2 13 12 10 10 -1 17 -7 17 -13z m257 -47 c-3 -7 -11 -13 -18 -13 -7 0 -15 6
-17 13 -3 7 4 12 17 12 13 0 20 -5 18 -12z m-198 -112 c0 -3 -4 -8 -10 -11 -5
-3 -10 -1 -10 4 0 6 5 11 10 11 6 0 10 -2 10 -4z m-330 -141 c10 -12 10 -15
-3 -15 -8 0 -20 7 -27 15 -10 12 -10 15 3 15 8 0 20 -7 27 -15z m338 -93 c3
-9 -2 -13 -14 -10 -9 1 -19 9 -22 16 -3 9 2 13 14 10 9 -1 19 -9 22 -16z
m-258 -43 c0 -5 -7 -9 -15 -9 -15 0 -20 12 -9 23 8 8 24 -1 24 -14z m350 -64
c0 -8 -4 -15 -10 -15 -5 0 -10 7 -10 15 0 8 5 15 10 15 6 0 10 -7 10 -15z
m418 -304 c10 -6 8 -10 -10 -14 -44 -12 -88 -8 -88 8 0 11 11 15 43 15 23 0
48 -4 55 -9z"></path>
<path d="M1282 3696 c-30 -11 -32 -14 -17 -26 9 -7 15 -25 15 -39 -3 -42 -1
-46 30 -64 17 -10 37 -31 45 -47 12 -23 102 -90 121 -90 9 0 -5 48 -27 94 -22
45 -24 78 -8 108 8 15 8 23 -3 33 -11 11 -111 47 -120 44 -2 -1 -18 -7 -36
-13z"></path>
<path d="M3977 3699 c-9 -6 -27 -7 -39 -4 -12 5 -39 -1 -67 -13 -25 -11 -65
-25 -87 -32 -27 -8 -46 -21 -53 -37 -9 -20 -16 -23 -44 -18 -62 12 -118 -29
-84 -62 13 -13 13 -19 1 -41 -7 -14 -11 -36 -8 -49 3 -12 9 -55 12 -95 6 -64
10 -73 28 -76 16 -2 20 -8 16 -27 -3 -19 1 -25 21 -30 45 -12 82 -2 85 23 4
26 6 26 31 10 17 -10 26 -7 65 24 53 41 80 73 91 107 6 20 4 23 -9 18 -9 -4
-16 -1 -16 6 0 17 12 32 30 39 8 3 21 23 28 44 14 40 29 78 42 104 4 9 11 34
15 57 5 35 4 43 -14 52 -23 13 -21 13 -44 0z m-317 -253 c0 -16 -18 -31 -27
-22 -8 8 5 36 17 36 5 0 10 -6 10 -14z m110 -124 c0 -14 -11 -21 -26 -15 -21
8 -17 23 6 23 11 0 20 -4 20 -8z"></path>
<path d="M2366 3652 c-10 -17 2 -67 17 -70 20 -4 32 17 18 31 -6 6 -11 19 -11
29 0 18 -15 24 -24 10z"></path>
<path d="M3465 3618 c-11 -33 -9 -51 7 -62 14 -8 21 -7 34 6 16 16 16 18 0 42
-18 28 -34 33 -41 14z"></path>
<path d="M5777 3540 c-6 -23 3 -26 21 -8 16 16 15 28 -2 28 -7 0 -16 -9 -19
-20z"></path>
<path d="M3468 3523 c-26 -4 -27 -7 -27 -56 0 -29 -5 -83 -10 -121 -7 -43 -7
-74 -1 -81 11 -13 -37 -63 -84 -85 -21 -10 -32 -23 -34 -42 -4 -32 13 -68 32
-68 7 0 25 -11 41 -26 15 -14 30 -23 32 -20 3 3 24 -4 46 -15 l40 -21 39 21
c26 14 48 18 68 14 19 -3 30 -1 30 6 0 6 -4 11 -9 11 -5 0 -7 10 -4 21 4 14 0
25 -11 31 -9 5 -16 18 -16 28 0 28 -18 34 -47 15 -26 -17 -26 -17 -20 6 7 25
-16 59 -40 59 -7 0 -18 10 -23 23 -7 17 -4 26 13 41 l22 18 -25 20 c-19 16
-21 21 -10 28 12 7 11 12 -3 28 -20 22 -13 34 18 26 30 -7 53 20 35 41 -7 9
-19 14 -27 11 -23 -9 -14 24 13 49 25 23 25 47 1 44 -7 -1 -24 -4 -39 -6z
m-26 -375 c-15 -15 -26 -4 -18 18 5 13 9 15 18 6 9 -9 9 -15 0 -24z m178 -87
c0 -6 -4 -13 -10 -16 -5 -3 -10 1 -10 9 0 9 5 16 10 16 6 0 10 -4 10 -9z"></path>
<path d="M2856 3511 c-7 -10 18 -34 27 -25 7 8 -3 34 -13 34 -5 0 -11 -4 -14
-9z"></path>
<path d="M4485 3501 c-3 -5 -1 -12 5 -16 12 -7 30 2 30 16 0 12 -27 12 -35 0z"></path>
<path d="M3067 3453 c-22 -25 -5 -53 33 -53 29 0 29 0 16 32 -17 39 -28 44
-49 21z"></path>
<path d="M4554 3446 c-8 -22 3 -33 18 -18 9 9 9 15 0 24 -9 9 -13 7 -18 -6z"></path>
<path d="M2581 3328 c-5 -14 -17 -28 -25 -31 -18 -7 -23 -67 -6 -67 6 0 10 6
10 14 0 7 12 30 26 51 17 26 22 41 15 48 -7 7 -13 2 -20 -15z"></path>
<path d="M3520 3329 c7 -11 14 -18 17 -15 8 8 -5 36 -17 36 -7 0 -7 -6 0 -21z"></path>
<path d="M2727 3291 c3 -13 -5 -26 -26 -42 -38 -28 -40 -43 -5 -35 33 9 74
-17 75 -47 1 -14 4 -9 11 16 6 20 19 42 29 48 22 11 25 29 6 29 -8 0 -24 11
-37 25 -29 30 -60 34 -53 6z"></path>
<path d="M5220 3220 c0 -5 5 -10 10 -10 6 0 10 5 10 10 0 6 -4 10 -10 10 -5 0
-10 -4 -10 -10z"></path>
<path d="M4031 3186 c-18 -19 -28 -36 -23 -40 10 -6 68 62 60 70 -2 2 -19 -11
-37 -30z"></path>
<path d="M3170 3157 c0 -8 9 -22 20 -32 27 -25 46 -7 24 23 -17 24 -44 30 -44
9z"></path>
<path d="M3256 3151 c-9 -14 5 -42 18 -38 18 6 20 47 2 47 -8 0 -17 -4 -20 -9z"></path>
<path d="M2528 3078 c-2 -25 -8 -33 -23 -34 -38 -2 -45 -4 -45 -13 0 -14 32
-23 44 -11 15 15 24 12 28 -10 3 -20 24 -30 22 -10 -1 6 -2 33 -2 60 -2 56
-19 68 -24 18z"></path>
<path d="M3653 3085 c-3 -9 -2 -19 1 -23 8 -8 38 10 44 26 6 18 -38 14 -45 -3z"></path>
<path d="M2615 3080 c-9 -15 4 -30 26 -30 22 0 24 11 7 28 -15 15 -25 15 -33
2z"></path>
<path d="M3410 2991 c0 -6 5 -13 10 -16 6 -3 10 1 10 9 0 9 -4 16 -10 16 -5 0
-10 -4 -10 -9z"></path>
<path d="M3454 2961 c-2 -2 1 -10 7 -18 21 -24 99 -11 99 17 0 6 -99 7 -106 1z"></path>
<path d="M1946 2812 c-3 -5 3 -17 14 -27 17 -15 20 -16 20 -3 0 19 -26 42 -34
30z"></path>
<path d="M3734 2542 c-28 -15 -63 -42 -78 -59 -29 -34 -51 -42 -60 -20 -3 8
-8 7 -16 -5 -6 -10 -20 -18 -30 -18 -10 0 -21 -4 -24 -9 -3 -5 -24 -7 -46 -4
-38 5 -40 4 -40 -20 0 -34 28 -43 56 -16 25 24 44 18 44 -13 0 -17 6 -14 41
21 23 22 50 41 61 41 11 0 34 16 51 35 17 19 38 35 46 35 24 0 83 39 76 50 -9
15 -25 11 -81 -18z"></path>
<path d="M4685 2506 c-11 -8 -14 -15 -8 -19 6 -4 16 0 23 8 17 21 8 28 -15 11z"></path>
<path d="M2173 2478 c2 -7 10 -13 17 -13 7 0 15 6 18 13 2 7 -5 12 -18 12 -13
0 -20 -5 -17 -12z"></path>
<path d="M4592 2457 c-18 -18 -32 -36 -32 -40 0 -9 52 -9 74 -1 23 9 20 24 -4
24 -23 0 -27 18 -5 26 16 6 21 24 7 24 -4 0 -22 -15 -40 -33z"></path>
<path d="M3355 2470 c-8 -12 20 -24 35 -15 6 3 8 11 5 16 -8 12 -32 12 -40 -1z"></path>
<path d="M4715 2471 c-6 -11 9 -23 19 -14 9 9 7 23 -3 23 -6 0 -12 -4 -16 -9z"></path>
<path d="M4755 2420 c4 -6 11 -8 16 -5 14 9 11 15 -7 15 -8 0 -12 -5 -9 -10z"></path>
<path d="M3300 2393 c0 -16 82 -112 101 -118 52 -17 25 42 -43 92 -43 32 -58
39 -58 26z"></path>
<path d="M2283 2318 c-21 -20 -23 -21 -41 -5 -13 12 -36 17 -79 17 -90 0 -123
-9 -134 -36 -7 -20 -16 -24 -48 -24 -40 0 -184 -18 -210 -26 -10 -3 -10 -8 -2
-18 21 -25 -17 -54 -84 -63 -72 -10 -79 -28 -22 -58 41 -22 63 -74 52 -124 -3
-16 0 -34 9 -46 9 -11 16 -28 16 -37 0 -20 43 -52 62 -46 7 3 13 15 13 29 0
26 32 46 120 74 28 9 58 20 67 26 10 5 22 9 27 9 5 0 22 5 38 12 15 6 62 23
103 38 58 20 78 32 88 53 11 23 16 25 32 15 15 -10 32 -7 90 12 109 36 127 51
136 105 5 38 3 52 -13 73 -23 31 -52 39 -138 41 -50 1 -64 -3 -82 -21z"></path>
<path d="M2572 2320 c7 -11 18 -20 25 -20 6 0 18 -12 25 -27 19 -38 65 -70 80
-55 9 9 1 21 -33 54 -65 61 -123 91 -97 48z"></path>
<path d="M4618 2326 c-30 -8 -53 -9 -63 -3 -12 6 -23 3 -41 -14 -36 -34 -40
-59 -13 -80 19 -14 21 -20 11 -32 -17 -20 13 -42 88 -64 30 -8 60 -19 65 -23
6 -5 42 -20 80 -34 39 -15 79 -30 90 -35 78 -34 105 -42 114 -37 6 4 11 32 11
63 0 66 11 64 17 -3 2 -26 8 -54 15 -61 22 -27 163 -81 267 -102 44 -9 59 -9
84 4 17 8 38 13 48 10 19 -6 35 10 19 20 -15 9 -12 25 5 25 8 0 15 -7 15 -14
0 -35 113 -86 190 -86 28 0 57 30 46 48 -3 4 -1 14 4 21 24 40 -47 121 -106
121 -19 0 -42 4 -52 9 -9 5 -25 12 -36 15 -12 4 -17 13 -13 26 6 22 -18 40
-53 40 -11 0 -34 7 -51 15 -26 14 -30 14 -35 1 -5 -13 -12 -12 -47 8 -34 18
-42 28 -42 51 0 35 -15 40 -154 50 -56 4 -104 11 -107 16 -3 5 -24 17 -47 28
-33 15 -61 18 -134 15 -51 -1 -95 1 -98 7 -8 11 -18 11 -77 -5z m742 -205 c0
-18 -18 -21 -30 -6 -10 13 -9 15 9 15 11 0 21 -4 21 -9z"></path>
<path d="M4316 2301 c-19 -21 -12 -28 13 -12 7 5 12 14 9 21 -2 7 -10 4 -22
-9z"></path>
<path d="M5442 2274 c4 -21 22 -23 26 -1 2 10 -3 17 -13 17 -10 0 -15 -6 -13
-16z"></path>
<path d="M5362 2271 c2 -7 7 -12 11 -12 12 1 9 15 -3 20 -7 2 -11 -2 -8 -8z"></path>
<path d="M5592 2254 c-7 -13 -13 -14 -30 -5 -24 13 -52 14 -52 3 0 -12 67 -42
95 -42 30 0 39 14 25 40 -13 24 -26 26 -38 4z"></path>
<path d="M4190 2239 c-8 -11 -28 -22 -43 -23 -32 -4 -52 -20 -43 -34 8 -13
104 11 123 31 15 15 8 47 -11 47 -6 -1 -18 -10 -26 -21z"></path>
<path d="M4310 2245 c-15 -18 2 -45 30 -45 17 0 34 43 22 55 -11 10 -40 5 -52
-10z"></path>
<path d="M2827 2213 c-12 -11 14 -33 39 -33 28 0 30 8 7 26 -20 15 -36 17 -46
7z"></path>
<path d="M2550 2183 c-19 -25 -23 -45 -7 -44 4 1 15 1 25 1 10 0 26 6 36 13
15 11 17 17 7 35 -16 29 -35 28 -61 -5z"></path>
<path d="M2926 2176 c3 -8 15 -16 27 -18 16 -2 22 -10 22 -27 0 -15 9 -28 23
-34 31 -14 27 -43 -8 -60 -29 -15 -31 -15 -57 17 -26 30 -73 64 -73 52 0 -3
18 -29 40 -58 32 -41 40 -59 36 -80 -5 -24 0 -30 29 -44 29 -14 38 -14 51 -3
18 15 12 68 -9 81 -14 9 19 43 43 43 10 0 14 9 13 28 -1 21 3 27 18 27 27 0
24 13 -11 39 -33 24 -50 21 -50 -11 0 -17 -2 -18 -15 -8 -8 7 -15 21 -15 31 0
20 -4 24 -42 33 -22 5 -26 3 -22 -8z"></path>
<path d="M4008 2176 c-15 -8 -36 -12 -48 -9 -15 4 -20 1 -20 -16 0 -14 -6 -21
-20 -21 -13 0 -20 -7 -20 -18 0 -10 -5 -23 -12 -30 -6 -6 -9 -15 -5 -18 9 -9
45 23 52 45 5 18 43 37 93 47 17 4 32 13 32 20 0 18 -18 18 -52 0z"></path>
<path d="M4380 2180 c-8 -5 -12 -11 -9 -14 2 -3 11 -1 19 4 8 5 12 11 9 14 -2
3 -11 1 -19 -4z"></path>
<path d="M2800 2162 c0 -4 7 -18 16 -31 12 -16 19 -20 27 -12 7 7 5 17 -8 31
-18 20 -35 26 -35 12z"></path>
<path d="M4103 2150 c-15 -6 -21 -15 -17 -25 8 -20 17 -19 37 3 29 31 22 39
-20 22z"></path>
<path d="M3994 2096 c-4 -17 1 -34 17 -55 28 -38 34 -38 52 -2 14 28 13 31
-12 55 -34 32 -49 33 -57 2z"></path>
<path d="M4260 2085 c-7 -8 -18 -15 -25 -15 -19 0 -90 -89 -105 -132 -16 -43
-8 -65 48 -135 39 -50 59 -53 94 -15 24 24 25 29 12 46 -18 26 -18 90 1 106 8
7 15 18 15 25 0 7 7 18 15 25 8 7 15 28 15 46 0 27 -6 36 -29 48 -26 14 -30
14 -41 1z"></path>
<path d="M5710 2072 c0 -12 34 -42 48 -42 22 0 12 19 -18 35 -16 9 -30 12 -30
7z"></path>
<path d="M3900 2021 c0 -25 22 -42 40 -31 8 5 22 5 32 -1 19 -10 38 -5 38 12
0 5 -8 13 -17 16 -10 4 -21 11 -25 17 -6 7 -11 6 -18 -4 -7 -12 -12 -12 -22
-2 -17 17 -28 15 -28 -7z"></path>
<path d="M3040 2015 c-7 -9 -11 -18 -8 -20 3 -3 11 1 18 10 7 9 11 18 8 20 -3
3 -11 -1 -18 -10z"></path>
<path d="M5676 2021 c-4 -5 -2 -12 3 -15 5 -4 12 -2 15 3 4 5 2 12 -3 15 -5 4
-12 2 -15 -3z"></path>
<path d="M3972 1923 c-5 -16 -6 -35 -1 -43 4 -8 10 -24 14 -34 4 -14 9 -16 16
-9 8 8 8 17 0 31 -6 12 -7 22 -2 24 11 4 2 58 -9 58 -5 0 -12 -12 -18 -27z"></path>
<path d="M3903 1891 c-10 -15 -8 -26 7 -56 15 -28 17 -42 9 -57 -6 -11 -7 -33
-3 -51 4 -18 8 -43 8 -57 1 -38 20 -30 30 13 7 26 5 58 -4 105 -8 37 -14 78
-14 91 -1 31 -18 37 -33 12z"></path>
<path d="M3076 1883 c-11 -11 -6 -23 9 -23 8 0 15 4 15 9 0 13 -16 22 -24 14z"></path>
<path d="M2891 1823 c-43 -78 -41 -87 13 -79 82 13 146 -33 146 -104 0 -34 14
-60 33 -60 15 0 -4 114 -23 135 -10 11 -24 40 -31 64 -9 32 -24 52 -52 72 -22
16 -43 29 -48 29 -4 0 -21 -26 -38 -57z"></path>
<path d="M4040 1864 c0 -8 5 -12 10 -9 6 3 10 10 10 16 0 5 -4 9 -10 9 -5 0
-10 -7 -10 -16z"></path>
<path d="M3993 1783 c-6 -21 -8 -41 -4 -46 4 -4 25 0 47 9 39 16 39 16 17 31
-13 9 -23 22 -23 29 0 29 -26 12 -37 -23z"></path>
<path d="M3500 1580 c0 -5 5 -10 10 -10 6 0 10 5 10 10 0 6 -4 10 -10 10 -5 0
-10 -4 -10 -10z"></path>
<path d="M3500 1505 c0 -14 5 -25 10 -25 6 0 10 11 10 25 0 14 -4 25 -10 25
-5 0 -10 -11 -10 -25z"></path>
<path d="M3910 1455 c-16 -19 -6 -46 15 -40 8 3 22 7 30 10 13 4 13 8 3 25
-15 24 -31 26 -48 5z"></path>
<path d="M3500 1410 c0 -5 5 -10 10 -10 6 0 10 5 10 10 0 6 -4 10 -10 10 -5 0
-10 -4 -10 -10z"></path>
<path d="M4042 4248 c2 -13 8 -23 13 -23 6 0 11 10 13 23 2 15 -2 22 -13 22
-11 0 -15 -7 -13 -22z"></path>
</g>
</svg>