 <svg version="1.0" xmlns="http://www.w3.org/2000/svg" width="700.000000pt" height="700.000000pt" viewBox="0 0 700.000000 700.000000" preserveAspectRatio="xMidYMid meet">
<metadata>
Created by potrace 1.12, written by Peter Selinger 2001-2015
</metadata>
<g transform="translate(0.000000,700.000000) scale(0.100000,-0.100000)" fill="#000000" stroke="none">
<path d="M3432 6440 c-52 -96 -72 -120 -97 -120 -39 0 -44 -12 -113 -250 -4
-13 -18 -30 -31 -36 -13 -7 -28 -18 -32 -26 -12 -17 -67 -196 -71 -228 -2 -16
-11 -26 -28 -30 -31 -7 -48 -62 -57 -179 -5 -74 -10 -88 -32 -109 -26 -24 -26
-26 -27 -170 -1 -143 -1 -147 -22 -150 -38 -6 -45 -34 -36 -161 5 -64 9 -123
9 -131 0 -8 -10 -16 -23 -18 -13 -2 -26 -10 -29 -19 -5 -13 10 -151 24 -210 4
-17 -2 -25 -27 -38 -32 -17 -33 -18 -27 -73 3 -32 17 -93 32 -137 30 -86 32
-91 40 -83 3 3 -5 39 -19 81 -13 41 -28 96 -31 122 -7 43 -5 49 24 79 l31 32
-16 102 -16 102 30 29 29 30 -5 121 -5 121 32 31 31 30 0 126 c0 117 2 128 26
170 19 32 29 68 35 126 12 104 24 141 54 160 15 10 29 33 35 58 32 126 60 191
95 222 29 26 39 45 56 111 28 110 48 147 88 166 22 10 45 35 65 69 17 30 37
55 43 57 7 3 27 -19 44 -47 17 -28 48 -62 68 -75 34 -21 40 -32 65 -116 40
-134 45 -147 77 -169 27 -20 57 -93 89 -218 7 -26 20 -48 36 -59 34 -22 42
-47 54 -161 8 -76 15 -102 34 -127 22 -29 25 -42 28 -164 3 -133 3 -133 32
-156 l29 -23 -5 -126 -5 -127 30 -29 31 -30 -12 -77 c-14 -89 -15 -130 -4
-119 12 12 41 200 33 214 -4 8 -19 19 -32 26 -21 11 -23 17 -19 57 3 24 5 89
5 144 0 97 0 99 -25 105 -25 6 -25 6 -30 154 -5 141 -6 148 -29 165 -21 16
-25 30 -31 107 -11 126 -25 170 -58 186 -15 7 -28 22 -30 33 -2 11 -17 67 -35
124 -24 81 -37 107 -57 119 -35 22 -50 42 -50 69 0 13 -15 66 -32 119 -30 86
-35 95 -62 102 -23 6 -39 24 -71 78 -48 82 -75 94 -103 44z"></path>
<path d="M3495 5120 c3 -69 11 -197 16 -285 6 -88 14 -234 19 -325 5 -91 14
-241 20 -335 5 -93 13 -227 16 -297 4 -71 11 -128 16 -128 11 0 10 68 -2 243
-5 78 -14 232 -20 342 -6 110 -15 268 -20 350 -6 83 -14 237 -20 344 -5 116
-13 198 -20 205 -8 8 -9 -23 -5 -114z"></path>
<path d="M3436 5188 c-3 -24 -11 -149 -16 -278 -6 -129 -15 -338 -21 -463 -9
-205 -8 -250 5 -236 4 4 16 238 36 684 5 121 12 246 15 278 7 67 -11 80 -19
15z"></path>
<path d="M4080 4545 c11 -12 20 -33 20 -47 0 -23 -37 -163 -55 -210 -4 -10 -3
-18 3 -18 20 0 91 258 77 280 -3 4 -18 10 -35 12 l-30 5 20 -22z"></path>
<path d="M937 4253 c-16 -15 -4 -45 39 -98 40 -49 45 -60 40 -90 -6 -32 -3
-37 99 -131 63 -58 105 -106 105 -117 0 -27 48 -85 124 -148 50 -41 66 -60 66
-80 0 -26 65 -86 164 -152 21 -14 47 -39 57 -56 23 -37 79 -79 187 -138 75
-41 83 -48 78 -69 -8 -29 18 -49 152 -119 85 -44 97 -54 102 -80 4 -26 16 -35
90 -72 47 -23 93 -42 102 -42 9 -1 19 -6 21 -11 3 -6 4 -5 3 2 -1 7 -44 33
-94 58 -74 36 -96 52 -110 80 -14 27 -41 47 -112 87 -104 58 -113 65 -138 112
-12 22 -48 51 -122 95 -71 42 -116 77 -139 107 -18 24 -50 55 -70 68 -74 50
-134 106 -148 139 -8 19 -52 70 -98 114 -53 49 -88 92 -95 113 -7 21 -39 60
-83 100 -86 81 -117 121 -117 154 0 14 -16 50 -36 79 -20 29 -34 56 -30 60 4
4 42 8 84 9 43 1 89 2 104 3 15 0 73 -15 129 -34 76 -27 111 -34 142 -30 32 4
67 -3 146 -30 119 -41 111 -39 111 -27 0 4 -47 25 -106 46 -84 30 -114 36
-149 32 -36 -5 -63 1 -150 33 -109 41 -153 48 -173 28 -8 -8 -28 -8 -81 0 -82
14 -86 14 -94 5z"></path>
<path d="M5691 4220 c-85 -32 -113 -38 -148 -33 -34 4 -64 -2 -148 -32 -58
-20 -105 -41 -105 -46 0 -12 -7 -14 110 27 82 28 113 35 147 30 34 -4 63 2
137 28 87 32 101 34 200 32 58 -2 109 -6 113 -9 3 -4 -8 -28 -26 -53 -18 -25
-35 -63 -38 -85 -5 -33 -19 -51 -99 -128 -64 -60 -94 -97 -94 -112 0 -14 -33
-55 -94 -118 -51 -53 -97 -106 -101 -119 -7 -23 -99 -106 -155 -139 -17 -10
-46 -38 -64 -63 -24 -33 -61 -62 -139 -108 -59 -35 -107 -68 -107 -72 0 -14
26 -2 125 58 98 58 132 85 141 114 3 10 31 36 62 57 80 54 162 130 162 150 0
9 43 58 95 109 73 72 95 100 95 121 0 21 16 40 74 88 96 80 130 125 122 158
-5 19 3 37 40 84 52 68 55 97 9 94 -81 -5 -143 -5 -175 1 -27 4 -60 -4 -139
-34z"></path>
<path d="M2837 4223 c-9 -8 -9 -56 -1 -77 11 -29 23 -17 17 18 -3 19 -1 36 6
40 6 4 11 11 11 17 0 10 -23 12 -33 2z"></path>
<path d="M4060 4221 c0 -5 5 -13 10 -16 18 -11 11 -52 -41 -221 -58 -194 -66
-211 -119 -264 -39 -39 -146 -100 -175 -100 -8 0 -15 -4 -15 -10 0 -17 29 -11
91 20 72 37 132 89 164 144 31 52 127 381 123 421 -2 19 -9 31 -20 33 -10 2
-18 -1 -18 -7z"></path>
<path d="M3380 4130 c0 -33 4 -60 10 -60 6 0 10 27 10 60 0 33 -4 60 -10 60
-6 0 -10 -27 -10 -60z"></path>
<path d="M1717 4124 c-14 -14 -7 -20 28 -21 20 -1 83 -24 145 -53 60 -28 114
-49 120 -45 13 8 104 -33 162 -73 43 -28 78 -45 78 -37 0 8 -114 82 -167 109
-29 14 -59 23 -68 20 -10 -4 -60 14 -123 45 -109 52 -161 68 -175 55z"></path>
<path d="M5210 4124 c-46 -17 -210 -99 -210 -106 0 -12 0 -12 103 38 55 26
111 46 131 47 21 1 35 6 33 11 -4 12 -35 17 -57 10z"></path>
<path d="M2854 4094 c3 -9 9 -28 12 -42 4 -15 17 -49 29 -77 12 -27 29 -75 38
-105 27 -94 120 -209 180 -223 17 -4 13 1 -13 21 -92 71 -118 114 -191 319
-24 68 -48 123 -53 123 -4 0 -5 -7 -2 -16z"></path>
<path d="M3370 4010 c0 -22 5 -40 10 -40 6 0 10 18 10 40 0 22 -4 40 -10 40
-5 0 -10 -18 -10 -40z"></path>
<path d="M4882 3996 c-35 -19 -78 -46 -97 -60 -18 -14 -38 -26 -43 -26 -5 0
-15 -7 -22 -15 -11 -13 -10 -14 6 -9 10 4 25 11 32 17 18 14 68 42 140 79 34
18 62 36 62 40 0 13 -12 9 -78 -26z"></path>
<path d="M3360 3870 c0 -33 4 -60 10 -60 6 0 10 27 10 60 0 33 -4 60 -10 60
-6 0 -10 -27 -10 -60z"></path>
<path d="M2316 3892 c-3 -5 14 -13 37 -19 l42 -11 -24 19 c-24 20 -46 24 -55
11z"></path>
<path d="M4609 3881 l-24 -19 42 11 c23 6 40 14 37 19 -9 13 -31 9 -55 -11z"></path>
<path d="M2400 3858 c0 -7 108 -78 117 -78 7 0 -22 21 -89 65 -16 9 -28 15
-28 13z"></path>
<path d="M4507 3819 c-26 -18 -45 -34 -43 -36 4 -4 57 30 91 59 20 17 -2 6
-48 -23z"></path>
<path d="M3350 3727 c0 -46 -4 -57 -29 -81 -31 -30 -80 -38 -135 -22 -21 6
-27 6 -22 -2 12 -19 73 -31 113 -22 22 5 49 22 66 40 22 25 27 39 27 85 0 30
-4 55 -10 55 -5 0 -10 -24 -10 -53z"></path>
<path d="M3580 3689 c0 -12 15 -36 34 -55 32 -32 76 -46 76 -24 0 6 -8 10 -17
10 -23 0 -73 49 -73 72 0 10 -4 18 -10 18 -5 0 -10 -9 -10 -21z"></path>
<path d="M4844 3544 c-18 -14 -18 -15 4 -4 12 6 22 13 22 15 0 8 -5 6 -26 -11z"></path>
<path d="M4793 3520 c-67 -27 -659 -356 -669 -371 -9 -15 40 8 137 64 52 29
196 109 321 176 126 68 230 127 234 132 6 11 6 11 -23 -1z"></path>
<path d="M4830 3497 c-53 -39 -212 -145 -472 -317 -104 -68 -186 -125 -184
-127 2 -2 19 5 37 15 73 41 619 402 669 442 43 34 -1 23 -50 -13z"></path>
<path d="M2176 3461 c28 -25 174 -127 284 -196 69 -43 181 -115 250 -160 148
-96 150 -97 150 -92 0 2 -19 17 -42 32 -24 15 -65 45 -93 65 -27 21 -64 46
-80 57 -56 33 -168 106 -293 190 -68 46 -127 83 -132 83 -4 0 -13 7 -20 15 -7
8 -17 15 -23 15 -7 0 -7 -3 -1 -9z"></path>
<path d="M2255 3460 c3 -5 79 -48 168 -96 89 -48 209 -114 266 -146 107 -62
156 -85 147 -69 -10 16 -503 289 -563 312 -15 5 -22 5 -18 -1z"></path>
<path d="M5047 3165 c-10 -14 -46 -39 -80 -56 -80 -41 -137 -77 -137 -88 0
-11 197 92 234 122 17 14 26 29 22 35 -10 17 -19 14 -39 -13z"></path>
<path d="M2860 3125 c6 -7 20 -15 31 -18 16 -4 18 -3 9 8 -6 7 -20 15 -31 18
-16 4 -18 3 -9 -8z"></path>
<path d="M4084 3124 c-18 -14 -18 -15 4 -4 12 6 22 13 22 15 0 8 -5 6 -26 -11z"></path>
<path d="M4814 2985 c-4 -10 -50 -38 -103 -63 -116 -54 -106 -69 11 -17 96 43
128 69 110 87 -9 9 -13 7 -18 -7z"></path>
<path d="M4594 2826 c-8 -22 -58 -46 -164 -81 -90 -29 -132 -53 -70 -40 92 20
240 81 255 106 4 6 2 16 -4 22 -7 7 -12 5 -17 -7z"></path>
<path d="M2370 2811 c0 -26 51 -54 173 -96 109 -37 117 -39 117 -27 0 4 -33
18 -72 31 -111 36 -198 78 -198 95 0 9 -4 16 -10 16 -5 0 -10 -9 -10 -19z"></path>
<path d="M1955 2669 c-81 -13 -95 -19 -95 -35 0 -12 3 -14 13 -6 32 27 361 43
452 22 51 -12 75 -41 75 -92 0 -76 6 -73 -510 -260 -194 -70 -240 -89 -240
-99 0 -11 -12 -15 115 32 61 22 146 53 190 69 450 160 465 169 465 258 0 64
-30 101 -90 113 -56 10 -308 9 -375 -2z"></path>
<path d="M4285 2656 c-18 -19 -56 -37 -154 -72 -8 -2 -11 -7 -8 -11 4 -3 37 4
75 16 76 25 133 63 117 80 -7 7 -17 2 -30 -13z"></path>
<path d="M4610 2667 c-39 -13 -80 -67 -80 -104 0 -13 7 -39 15 -59 16 -38 72
-69 230 -125 44 -15 136 -49 205 -74 69 -25 159 -57 200 -72 41 -14 87 -32
103 -39 27 -15 38 -5 15 14 -7 5 -128 51 -268 101 -402 144 -441 161 -464 200
-25 43 -13 95 27 125 25 19 45 21 169 24 147 4 291 -10 315 -29 18 -15 29 -4
14 15 -6 7 -45 19 -87 25 -98 15 -349 13 -394 -2z"></path>
<path d="M2670 2646 c0 -8 15 -23 33 -34 39 -24 256 -96 264 -88 3 3 0 8 -8
10 -8 3 -66 23 -129 45 -65 23 -122 49 -132 61 -19 24 -28 25 -28 6z"></path>
<path d="M1726 2599 c-145 -13 -160 -18 -166 -59 -5 -33 -6 -34 -85 -51 -128
-28 -158 -41 -165 -68 -5 -21 -18 -28 -85 -46 -138 -37 -179 -61 -155 -90 17
-20 27 -19 33 4 5 22 42 39 140 65 52 14 72 25 88 48 25 34 47 44 149 65 82
17 100 26 100 54 0 30 40 47 125 54 111 8 145 14 145 25 0 6 -6 9 -12 9 -7 -1
-58 -6 -112 -10z"></path>
<path d="M5110 2599 c0 -9 37 -16 139 -24 90 -8 121 -19 121 -43 0 -30 30 -49
105 -66 39 -9 80 -18 92 -21 12 -3 40 -23 61 -44 27 -28 51 -41 87 -49 65 -14
125 -39 130 -55 2 -7 6 -25 10 -40 6 -30 7 -31 144 -82 41 -15 91 -43 112 -62
21 -19 76 -54 121 -77 l83 -42 -3 -45 c-2 -40 1 -48 33 -79 19 -19 35 -37 35
-41 0 -4 -18 -10 -39 -14 -22 -3 -49 -17 -62 -31 -26 -27 -63 -30 -169 -13
-47 7 -76 7 -105 -1 -32 -9 -55 -8 -115 5 -41 9 -97 19 -124 22 -44 5 -50 3
-70 -22 l-22 -28 -98 28 c-53 15 -100 24 -104 21 -10 -10 16 -24 78 -41 30 -9
77 -22 103 -31 55 -17 71 -11 63 22 -9 36 13 39 102 16 107 -29 179 -37 196
-23 11 9 34 9 98 1 46 -6 106 -10 133 -8 43 3 50 6 53 25 3 20 10 22 75 25 64
3 72 5 75 24 2 15 -13 33 -58 68 -33 26 -60 50 -60 54 0 3 12 16 28 28 24 20
25 24 12 37 -20 20 -188 107 -205 107 -8 0 -20 12 -27 27 -14 29 -55 49 -198
99 -52 17 -64 26 -62 40 9 53 7 55 -43 76 -27 11 -81 28 -120 37 -62 15 -70
20 -68 39 3 27 -13 34 -141 63 -50 12 -97 23 -103 25 -7 2 -13 17 -13 33 0 16
-4 32 -9 35 -25 16 -271 38 -271 25z"></path>
<path d="M4068 2563 c-10 -2 -18 -9 -18 -14 0 -11 39 -2 55 12 9 9 -6 10 -37
2z"></path>
<path d="M2560 2420 c-14 -4 -79 -24 -145 -43 -66 -19 -176 -51 -245 -72 -287
-84 -369 -108 -445 -130 -47 -13 -74 -25 -65 -29 14 -6 156 33 495 134 388
116 453 133 478 126 32 -8 89 -63 128 -124 31 -50 39 -115 18 -155 -7 -12 -73
-96 -148 -187 -168 -203 -165 -199 -159 -206 6 -6 320 369 330 394 13 34 8
103 -12 142 -11 21 -44 64 -72 95 -44 47 -60 57 -93 60 -22 3 -51 0 -65 -5z"></path>
<path d="M4274 2401 c-71 -52 -134 -156 -134 -220 0 -31 9 -51 43 -94 63 -82
286 -345 299 -353 27 -17 -30 58 -168 221 -131 155 -154 190 -154 232 0 48 34
108 96 171 65 65 65 65 254 8 329 -98 770 -226 781 -226 5 0 9 4 9 9 0 4 -28
16 -62 26 -35 9 -99 27 -143 40 -196 58 -328 96 -430 125 -60 17 -153 45 -207
61 -120 36 -134 36 -184 0z"></path>
<path d="M1077 2253 c-4 -6 -19 -14 -34 -17 -16 -4 -70 -23 -121 -42 -70 -28
-95 -42 -105 -62 -7 -16 -28 -32 -52 -41 -65 -25 -167 -84 -179 -104 -9 -15
-7 -22 11 -34 32 -22 29 -36 -16 -67 -105 -73 -102 -106 10 -106 63 0 68 -2
71 -22 2 -19 10 -24 48 -26 25 -2 85 2 133 8 68 9 91 9 102 0 17 -14 85 -7
194 22 41 10 80 17 87 14 7 -3 14 -17 16 -33 2 -18 9 -27 18 -26 37 3 203 52
213 62 22 22 -3 21 -92 -5 l-92 -26 -29 27 c-32 31 -52 31 -194 1 -62 -13 -87
-14 -113 -5 -25 8 -56 8 -115 0 -112 -15 -123 -14 -155 13 -16 13 -46 27 -66
31 -20 4 -39 11 -42 15 -3 4 11 20 29 34 41 31 51 57 35 87 -10 20 -8 25 12
42 13 11 59 37 101 58 43 22 85 50 94 64 15 22 121 71 196 90 31 8 52 29 46
47 -3 8 -6 9 -11 1z"></path>
<path d="M3080 2200 c0 -5 5 -10 10 -10 6 0 10 5 10 10 0 6 -4 10 -10 10 -5 0
-10 -4 -10 -10z"></path>
<path d="M3870 2200 c0 -5 5 -10 10 -10 6 0 10 5 10 10 0 6 -4 10 -10 10 -5 0
-10 -4 -10 -10z"></path>
<path d="M3086 2104 c-6 -24 -2 -44 8 -33 9 11 15 59 7 59 -5 0 -12 -12 -15
-26z"></path>
<path d="M3863 2117 c14 -37 28 -133 23 -159 -4 -21 -2 -28 7 -26 6 3 13 15
15 27 5 33 -27 171 -40 171 -5 0 -8 -6 -5 -13z"></path>
<path d="M3065 1998 c-6 -43 -4 -54 11 -65 22 -16 31 -9 14 12 -8 10 -10 29
-6 60 5 27 3 45 -2 45 -6 0 -13 -23 -17 -52z"></path>
<path d="M3520 2040 c0 -5 5 -10 10 -10 6 0 10 5 10 10 0 6 -4 10 -10 10 -5 0
-10 -4 -10 -10z"></path>
<path d="M3520 1925 c0 -30 5 -55 10 -55 6 0 10 25 10 55 0 30 -4 55 -10 55
-5 0 -10 -25 -10 -55z"></path>
<path d="M2193 1939 c-28 -17 -64 -32 -80 -33 -31 -4 -37 -19 -10 -24 16 -3
139 57 162 79 20 20 -22 7 -72 -22z"></path>
<path d="M4710 1950 c38 -29 129 -72 147 -68 9 2 18 9 21 17 3 9 -2 11 -17 6
-14 -4 -42 5 -88 29 -74 39 -102 47 -63 16z"></path>
<path d="M3440 1910 c0 -27 5 -50 10 -50 6 0 10 23 10 50 0 28 -4 50 -10 50
-5 0 -10 -22 -10 -50z"></path>
<path d="M2216 1875 c-61 -60 -66 -68 -61 -98 5 -28 0 -40 -40 -87 -54 -65
-78 -107 -69 -121 3 -6 -19 -48 -50 -95 -59 -89 -70 -124 -37 -124 30 0 33
-15 15 -69 -27 -85 -8 -106 74 -78 38 13 42 13 61 -6 24 -24 39 -19 136 43 41
27 67 38 82 34 15 -4 46 10 107 50 67 45 90 55 111 50 30 -8 59 9 135 82 30
28 69 59 87 68 38 19 151 164 169 217 16 46 4 96 -31 129 -20 19 -39 25 -88
28 l-62 4 -96 -74 c-136 -104 -176 -137 -163 -138 6 0 66 43 135 95 120 91
126 95 176 95 89 0 141 -67 110 -141 -22 -52 -133 -186 -169 -205 -18 -9 -61
-43 -95 -75 -34 -33 -65 -60 -70 -60 -4 -1 -24 -3 -45 -4 -22 -1 -66 -20 -114
-49 -44 -26 -91 -46 -107 -46 -15 0 -58 -18 -94 -40 -68 -41 -97 -48 -109 -29
-3 6 -28 9 -58 7 l-51 -3 3 49 c2 33 -2 60 -14 81 l-17 32 47 69 c26 38 46 80
46 95 0 16 21 56 55 102 43 59 55 83 55 112 0 31 9 46 57 96 31 32 54 61 51
64 -3 3 -35 -24 -72 -60z"></path>
<path d="M4670 1923 c0 -3 25 -32 55 -64 30 -32 55 -65 55 -73 0 -9 5 -16 10
-16 6 0 10 10 10 23 0 14 -21 43 -58 80 -54 53 -72 66 -72 50z"></path>
<path d="M1965 1870 c-89 -51 -141 -68 -157 -52 -19 19 -30 14 -26 -10 2 -13
11 -24 20 -26 28 -5 248 100 248 120 0 13 -12 9 -85 -32z"></path>
<path d="M4912 1898 c6 -18 190 -109 225 -111 23 -2 29 2 31 23 3 20 1 23 -9
13 -21 -21 -44 -15 -146 37 -54 28 -99 50 -101 50 -2 0 -2 -6 0 -12z"></path>
<path d="M3085 1823 c-6 -67 -5 -78 11 -90 22 -16 31 -9 15 11 -9 10 -10 36
-5 85 4 46 3 71 -4 71 -5 0 -13 -35 -17 -77z"></path>
<path d="M4068 1884 c-34 -18 -58 -62 -58 -106 0 -54 130 -239 180 -257 16 -5
65 -44 110 -85 81 -77 94 -84 105 -66 11 18 31 11 116 -45 60 -39 90 -54 106
-50 16 4 45 -10 99 -45 84 -55 105 -60 125 -30 13 19 17 19 54 5 85 -31 103
-14 76 71 -21 63 -20 74 10 74 11 0 22 6 25 14 6 15 -73 147 -95 160 -6 4 -11
21 -11 37 0 30 -30 81 -88 149 -51 59 -46 26 6 -46 27 -38 52 -84 56 -103 3
-19 27 -65 53 -103 l47 -68 -24 -25 c-18 -19 -21 -31 -17 -57 15 -76 16 -73
-28 -70 -22 1 -57 -3 -77 -9 -35 -11 -41 -10 -106 30 -39 24 -81 41 -98 41
-18 0 -59 18 -104 47 -58 35 -84 46 -113 45 -34 -1 -46 7 -111 67 -41 37 -87
73 -104 80 -27 11 -94 90 -155 181 -27 40 -22 97 12 131 25 24 37 29 81 29 63
0 72 -5 185 -95 86 -68 135 -101 135 -91 0 7 -195 163 -232 186 -40 24 -120
26 -160 4z"></path>
<path d="M3865 1820 c6 -50 4 -64 -13 -87 -18 -25 -19 -39 -15 -115 5 -76 3
-91 -16 -123 -17 -29 -21 -52 -21 -123 0 -57 -5 -97 -15 -115 -8 -16 -19 -63
-24 -104 -6 -49 -17 -86 -30 -103 -11 -15 -29 -62 -40 -105 -10 -42 -31 -94
-46 -115 -14 -21 -33 -66 -41 -99 -16 -69 -39 -121 -55 -121 -5 0 -19 -16 -30
-35 -24 -40 -44 -45 -55 -13 -3 11 -22 35 -41 53 -27 25 -38 47 -54 111 -11
43 -29 88 -39 99 -25 29 -36 53 -50 115 -7 30 -23 73 -35 95 -14 24 -28 73
-34 118 -6 43 -18 91 -26 107 -10 20 -15 59 -15 122 0 77 -4 97 -20 118 -15
19 -20 41 -20 93 0 38 -4 67 -10 67 -6 0 -10 -33 -10 -80 0 -69 3 -81 20 -90
18 -10 20 -21 20 -117 0 -75 4 -111 13 -122 8 -9 20 -56 27 -106 8 -62 18 -97
32 -111 10 -12 28 -59 39 -105 13 -57 28 -92 45 -110 17 -18 30 -49 40 -99 21
-100 30 -120 54 -120 14 0 28 -17 50 -60 17 -33 35 -60 40 -60 5 0 19 23 31
50 12 28 34 59 48 69 26 19 53 83 67 161 3 19 17 46 30 60 21 23 54 121 54
161 0 10 12 31 26 49 22 25 28 47 36 118 5 49 16 94 24 103 10 11 14 44 14
122 0 98 2 107 21 118 21 11 22 16 16 119 -5 101 -4 109 15 122 18 12 19 20
13 81 -4 37 -12 67 -17 67 -6 0 -7 -23 -3 -60z"></path>
<path d="M1678 1820 c-86 -37 -133 -46 -153 -30 -25 21 -31 1 -8 -22 l22 -21
63 21 c87 29 158 61 158 72 0 14 -8 12 -82 -20z"></path>
<path d="M5190 1841 c0 -5 26 -19 58 -31 31 -13 62 -26 67 -30 9 -6 96 -30
109 -30 3 0 10 8 15 18 9 16 5 18 -37 18 -30 1 -74 12 -121 32 -78 34 -91 37
-91 23z"></path>
<path d="M3510 1760 c0 -40 4 -70 10 -70 6 0 10 30 10 70 0 40 -4 70 -10 70
-6 0 -10 -30 -10 -70z"></path>
<path d="M3450 1695 c0 -63 4 -105 10 -105 6 0 10 42 10 105 0 63 -4 105 -10
105 -6 0 -10 -42 -10 -105z"></path>
<path d="M3500 1535 c0 -43 4 -75 10 -75 6 0 10 32 10 75 0 43 -4 75 -10 75
-6 0 -10 -32 -10 -75z"></path>
<path d="M3460 1475 c0 -14 5 -25 10 -25 6 0 10 11 10 25 0 14 -4 25 -10 25
-5 0 -10 -11 -10 -25z"></path>
</g>
</svg>